<svg width="638" height="170" viewBox="0 0 638 170" fill="none" xmlns="http://www.w3.org/2000/svg">
<path d="M612.879 169.121C614.05 170.293 615.95 170.293 617.121 169.121L636.213 150.029C637.385 148.858 637.385 146.958 636.213 145.787C635.042 144.615 633.142 144.615 631.971 145.787L615 162.757L598.029 145.787C596.858 144.615 594.958 144.615 593.787 145.787C592.615 146.958 592.615 148.858 593.787 150.029L612.879 169.121ZM612 131.52V167H618V131.52H612ZM0 0V73.5199H6V0H0ZM32 105.52H586V99.5199H32V105.52ZM0 73.5199C0 91.1931 14.3269 105.52 32 105.52V99.5199C17.6406 99.5199 6 87.8793 6 73.5199H0ZM618 131.52C618 113.847 603.673 99.5199 586 99.5199V105.52C600.359 105.52 612 117.161 612 131.52H618Z" fill="#453E48"/>
</svg>
