<svg width="1236" height="438" viewBox="0 0 1236 438" fill="none" xmlns="http://www.w3.org/2000/svg">
<path d="M608.546 437.121C607.375 438.293 605.475 438.293 604.303 437.121L585.212 418.029C584.04 416.858 584.04 414.958 585.212 413.787C586.383 412.615 588.283 412.615 589.454 413.787L606.425 430.757L623.395 413.787C624.567 412.615 626.466 412.615 627.638 413.787C628.81 414.958 628.81 416.858 627.638 418.029L608.546 437.121ZM32 36H1204V42H32V36ZM609.425 309.5V435H603.425V309.5H609.425ZM32 277.5H577.425V283.5H32V277.5ZM1236 68V142.601H1230V68H1236ZM1204 174.601H448.397V168.601H1204V174.601ZM448.397 174.601H32V168.601H448.397V174.601ZM6 200.601V251.5H0V200.601H6ZM0 10V0.5H6V10H0ZM32 174.601C17.6406 174.601 6 186.241 6 200.601H0C0 182.927 14.3269 168.601 32 168.601V174.601ZM32 283.5C14.3269 283.5 0 269.173 0 251.5H6C6 265.859 17.6406 277.5 32 277.5V283.5ZM603.425 309.5C603.425 295.141 591.784 283.5 577.425 283.5V277.5C595.098 277.5 609.425 291.827 609.425 309.5H603.425ZM1204 36C1221.67 36 1236 50.3269 1236 68H1230C1230 53.6406 1218.36 42 1204 42V36ZM1236 142.601C1236 160.274 1221.67 174.601 1204 174.601V168.601C1218.36 168.601 1230 156.96 1230 142.601H1236ZM32 42C14.3269 42 0 27.6731 0 10H6C6 24.3594 17.6406 36 32 36V42Z" fill="#453E48"/>
</svg>
