<svg width="1196" height="144" viewBox="0 0 1196 144" fill="none" xmlns="http://www.w3.org/2000/svg">
<path d="M25.1213 143.121C23.9497 144.293 22.0503 144.293 20.8787 143.121L1.78674 124.029C0.615234 122.858 0.615234 120.958 1.78674 119.787C2.95837 118.615 4.85791 118.615 6.02942 119.787L23 136.757L39.9706 119.787C41.1421 118.615 43.0416 118.615 44.2133 119.787C45.3848 120.958 45.3848 122.858 44.2133 124.029L25.1213 143.121ZM26 91.2337V141H20V91.2337H26ZM1196 0V33.2341H1190V0H1196ZM1164 65.2341L52 65.2337V59.2337L1164 59.2341L1164 65.2341ZM1196 33.2341C1196 50.9072 1181.67 65.2341 1164 65.2341L1164 59.2341C1178.36 59.2341 1190 47.5935 1190 33.2341H1196ZM20 91.2337C20 73.5606 34.3269 59.2337 52 59.2337V65.2337C37.6406 65.2337 26 76.8743 26 91.2337H20Z" fill="#453E48"/>
</svg>
