<svg width="186" height="23" viewBox="0 0 186 23" fill="none" xmlns="http://www.w3.org/2000/svg">
<path d="M2 10.2939C1.17157 10.2939 0.5 10.9655 0.5 11.7939C0.5 12.6224 1.17157 13.2939 2 13.2939L2 10.2939ZM184.996 12.8542C185.582 12.2684 185.582 11.3187 184.996 10.7329L175.45 1.18695C174.864 0.601164 173.915 0.601166 173.329 1.18695C172.743 1.77274 172.743 2.72249 173.329 3.30827L181.814 11.7935L173.329 20.2788C172.743 20.8646 172.743 21.8144 173.329 22.4002C173.915 22.9859 174.865 22.9859 175.45 22.4002L184.996 12.8542ZM2 13.2939L183.936 13.2935L183.936 10.2935L2 10.2939L2 13.2939Z" fill="#1F1D20"/>
</svg>
