<svg width="96" height="49" viewBox="0 0 96 49" fill="none" xmlns="http://www.w3.org/2000/svg">
<path d="M46.5 24.5C46.5 37.2319 36.3974 47.5 24 47.5C11.6026 47.5 1.5 37.2319 1.5 24.5C1.5 11.7681 11.6026 1.5 24 1.5C36.3974 1.5 46.5 11.7681 46.5 24.5Z" fill="#4420B2" stroke="white" stroke-width="3"/>
<path d="M35.5864 32.8903C35.5864 32.8903 32.1127 38.5958 24.1729 38.5958C16.233 38.5958 13.0902 32.8903 13.0902 32.8903" stroke="#B9FF5E" stroke-width="4" stroke-linecap="round"/>
<path d="M70.5 24.5C70.5 37.2319 60.3974 47.5 48 47.5C35.6026 47.5 25.5 37.2319 25.5 24.5C25.5 11.7681 35.6026 1.5 48 1.5C60.3974 1.5 70.5 11.7681 70.5 24.5Z" fill="#4420B2" stroke="white" stroke-width="3"/>
<path d="M59.5864 32.8903C59.5864 32.8903 56.1127 38.5958 48.1729 38.5958C40.233 38.5958 37.0902 32.8903 37.0902 32.8903" stroke="#B9FF5E" stroke-width="4" stroke-linecap="round"/>
<path d="M94.5 24.5C94.5 37.2319 84.3974 47.5 72 47.5C59.6026 47.5 49.5 37.2319 49.5 24.5C49.5 11.7681 59.6026 1.5 72 1.5C84.3974 1.5 94.5 11.7681 94.5 24.5Z" fill="#4420B2" stroke="white" stroke-width="3"/>
<path d="M83.5864 32.8903C83.5864 32.8903 80.1127 38.5958 72.1729 38.5958C64.233 38.5958 61.0902 32.8903 61.0902 32.8903" stroke="#B9FF5E" stroke-width="4" stroke-linecap="round"/>
</svg>
