<svg width="310" height="310" viewBox="0 0 310 310" fill="none" xmlns="http://www.w3.org/2000/svg">
<path fill-rule="evenodd" clip-rule="evenodd" d="M120.334 40.7631C120.065 39.0054 119.926 37.2051 119.926 35.3723C119.926 15.8367 135.763 0 155.298 0C174.384 0 189.939 15.1159 190.645 34.029H190.894C190.894 62.0134 175.67 115.072 154.419 115.072C134.844 115.072 122.205 68.7206 120.334 40.7631Z" fill="#1F1D20"/>
<path fill-rule="evenodd" clip-rule="evenodd" d="M265.743 94.6666L265.918 94.8421C246.13 114.63 197.847 141.383 182.821 126.357C168.979 112.515 192.817 70.8023 211.263 49.7104C212.316 48.2774 213.491 46.9057 214.787 45.6097C228.601 31.7959 250.997 31.7959 264.811 45.6097C278.307 59.1055 278.617 80.7937 265.743 94.6666Z" fill="#1F1D20"/>
<path fill-rule="evenodd" clip-rule="evenodd" d="M269.223 120.334C270.985 120.064 272.79 119.924 274.628 119.924C294.163 119.924 310 135.761 310 155.296C310 174.382 294.883 189.938 275.97 190.643V190.893C247.985 190.893 194.927 175.669 194.927 154.418C194.927 134.846 241.264 122.208 269.223 120.334Z" fill="#1F1D20"/>
<path fill-rule="evenodd" clip-rule="evenodd" d="M215.335 265.743L215.16 265.918C195.372 246.13 168.619 197.847 183.645 182.821C197.487 168.979 239.2 192.817 260.292 211.263C261.725 212.316 263.096 213.491 264.392 214.787C278.206 228.601 278.206 250.997 264.392 264.811C250.896 278.307 229.208 278.617 215.335 265.743Z" fill="#1F1D20"/>
<path fill-rule="evenodd" clip-rule="evenodd" d="M189.666 269.237C189.935 270.995 190.074 272.795 190.074 274.628C190.074 294.163 174.237 310 154.702 310C135.616 310 120.061 294.884 119.355 275.971H119.106C119.106 247.987 134.33 194.928 155.581 194.928C175.156 194.928 187.795 241.279 189.666 269.237Z" fill="#1F1D20"/>
<path fill-rule="evenodd" clip-rule="evenodd" d="M44.2575 215.333L44.0819 215.158C63.8699 195.37 112.153 168.617 127.179 183.643C141.021 197.485 117.183 239.198 98.7366 260.29C97.6837 261.723 96.5093 263.094 95.2132 264.39C81.3994 278.204 59.0029 278.204 45.1892 264.39C31.6933 250.894 31.3827 229.206 44.2575 215.333Z" fill="#1F1D20"/>
<path fill-rule="evenodd" clip-rule="evenodd" d="M40.7767 189.666C39.0147 189.936 37.2099 190.076 35.3723 190.076C15.8367 190.076 0 174.239 0 154.704C0 135.618 15.1165 120.062 34.0302 119.357V119.107C62.0146 119.107 115.073 134.331 115.073 155.582C115.073 175.154 68.7356 187.792 40.7767 189.666Z" fill="#1F1D20"/>
<path fill-rule="evenodd" clip-rule="evenodd" d="M94.6646 44.2575L94.8402 44.0819C114.628 63.8699 141.381 112.153 126.355 127.179C112.513 141.021 70.8003 117.183 49.7084 98.7366C48.2754 97.6837 46.9038 96.5093 45.6077 95.2132C31.794 81.3994 31.794 59.0029 45.6077 45.1892C59.1036 31.6933 80.7917 31.3827 94.6646 44.2575Z" fill="#1F1D20"/>
<circle cx="155.297" cy="154.474" r="39.4021" fill="#FF832A"/>
</svg>
