<svg width="428" height="132" viewBox="0 0 428 132" fill="none" xmlns="http://www.w3.org/2000/svg">
<path d="M11.2372 127V112.3H16.9702C18.2582 112.3 19.3572 112.503 20.2672 112.909C21.1772 113.315 21.8772 113.903 22.3672 114.673C22.8572 115.443 23.1022 116.36 23.1022 117.424C23.1022 118.488 22.8572 119.405 22.3672 120.175C21.8772 120.931 21.1772 121.512 20.2672 121.918C19.3572 122.324 18.2582 122.527 16.9702 122.527H12.3922L13.3372 121.561V127H11.2372ZM21.0652 127L17.3272 121.666H19.5742L23.3542 127H21.0652ZM13.3372 121.771L12.3922 120.742H16.9072C18.2512 120.742 19.2662 120.455 19.9522 119.881C20.6522 119.293 21.0022 118.474 21.0022 117.424C21.0022 116.374 20.6522 115.562 19.9522 114.988C19.2662 114.414 18.2512 114.127 16.9072 114.127H12.3922L13.3372 113.077V121.771ZM31.157 127.126C29.967 127.126 28.917 126.881 28.007 126.391C27.111 125.901 26.411 125.229 25.907 124.375C25.417 123.521 25.172 122.541 25.172 121.435C25.172 120.329 25.41 119.349 25.886 118.495C26.376 117.641 27.041 116.976 27.881 116.5C28.735 116.01 29.694 115.765 30.758 115.765C31.836 115.765 32.788 116.003 33.614 116.479C34.44 116.955 35.084 117.627 35.546 118.495C36.022 119.349 36.26 120.35 36.26 121.498C36.26 121.582 36.253 121.68 36.239 121.792C36.239 121.904 36.232 122.009 36.218 122.107H26.747V120.658H35.168L34.349 121.162C34.363 120.448 34.216 119.811 33.908 119.251C33.6 118.691 33.173 118.257 32.627 117.949C32.095 117.627 31.472 117.466 30.758 117.466C30.058 117.466 29.435 117.627 28.889 117.949C28.343 118.257 27.916 118.698 27.608 119.272C27.3 119.832 27.146 120.476 27.146 121.204V121.54C27.146 122.282 27.314 122.947 27.65 123.535C28 124.109 28.483 124.557 29.099 124.879C29.715 125.201 30.422 125.362 31.22 125.362C31.878 125.362 32.473 125.25 33.005 125.026C33.551 124.802 34.027 124.466 34.433 124.018L35.546 125.32C35.042 125.908 34.412 126.356 33.656 126.664C32.914 126.972 32.081 127.126 31.157 127.126ZM41.7734 127L36.9014 115.87H39.0014L43.3274 125.95H42.3194L46.7294 115.87H48.7034L43.8314 127H41.7734ZM55.0442 127.126C53.9242 127.126 52.9302 126.881 52.0622 126.391C51.1942 125.901 50.5082 125.229 50.0042 124.375C49.5002 123.507 49.2482 122.527 49.2482 121.435C49.2482 120.329 49.5002 119.349 50.0042 118.495C50.5082 117.641 51.1942 116.976 52.0622 116.5C52.9302 116.01 53.9242 115.765 55.0442 115.765C56.1502 115.765 57.1372 116.01 58.0052 116.5C58.8872 116.976 59.5732 117.641 60.0632 118.495C60.5672 119.335 60.8192 120.315 60.8192 121.435C60.8192 122.541 60.5672 123.521 60.0632 124.375C59.5732 125.229 58.8872 125.901 58.0052 126.391C57.1372 126.881 56.1502 127.126 55.0442 127.126ZM55.0442 125.362C55.7582 125.362 56.3952 125.201 56.9552 124.879C57.5292 124.557 57.9772 124.102 58.2992 123.514C58.6212 122.912 58.7822 122.219 58.7822 121.435C58.7822 120.637 58.6212 119.951 58.2992 119.377C57.9772 118.789 57.5292 118.334 56.9552 118.012C56.3952 117.69 55.7582 117.529 55.0442 117.529C54.3302 117.529 53.6932 117.69 53.1332 118.012C52.5732 118.334 52.1252 118.789 51.7892 119.377C51.4532 119.951 51.2852 120.637 51.2852 121.435C51.2852 122.219 51.4532 122.912 51.7892 123.514C52.1252 124.102 52.5732 124.557 53.1332 124.879C53.6932 125.201 54.3302 125.362 55.0442 125.362ZM63.6073 127V111.418H65.6233V127H63.6073ZM74.1555 127.126C73.2035 127.126 72.3635 126.951 71.6355 126.601C70.9215 126.251 70.3615 125.719 69.9555 125.005C69.5635 124.277 69.3675 123.367 69.3675 122.275V115.87H71.3835V122.044C71.3835 123.136 71.6425 123.955 72.1605 124.501C72.6925 125.047 73.4345 125.32 74.3865 125.32C75.0865 125.32 75.6955 125.18 76.2135 124.9C76.7315 124.606 77.1305 124.186 77.4105 123.64C77.6905 123.08 77.8305 122.408 77.8305 121.624V115.87H79.8465V127H77.9355V123.997L78.2505 124.795C77.8865 125.537 77.3405 126.111 76.6125 126.517C75.8845 126.923 75.0655 127.126 74.1555 127.126ZM87.5064 127.126C86.3864 127.126 85.5184 126.825 84.9024 126.223C84.2864 125.621 83.9784 124.76 83.9784 123.64V113.434H85.9944V123.556C85.9944 124.158 86.1414 124.62 86.4354 124.942C86.7434 125.264 87.1774 125.425 87.7374 125.425C88.3674 125.425 88.8924 125.25 89.3124 124.9L89.9424 126.349C89.6344 126.615 89.2634 126.811 88.8294 126.937C88.4094 127.063 87.9684 127.126 87.5064 127.126ZM82.0884 117.529V115.87H89.1864V117.529H82.0884ZM92.3798 127V115.87H94.3958V127H92.3798ZM93.3878 113.728C92.9958 113.728 92.6668 113.602 92.4008 113.35C92.1488 113.098 92.0228 112.79 92.0228 112.426C92.0228 112.048 92.1488 111.733 92.4008 111.481C92.6668 111.229 92.9958 111.103 93.3878 111.103C93.7798 111.103 94.1018 111.229 94.3538 111.481C94.6198 111.719 94.7528 112.02 94.7528 112.384C94.7528 112.762 94.6268 113.084 94.3748 113.35C94.1228 113.602 93.7938 113.728 93.3878 113.728ZM103.012 127.126C101.892 127.126 100.898 126.881 100.03 126.391C99.162 125.901 98.476 125.229 97.972 124.375C97.468 123.507 97.216 122.527 97.216 121.435C97.216 120.329 97.468 119.349 97.972 118.495C98.476 117.641 99.162 116.976 100.03 116.5C100.898 116.01 101.892 115.765 103.012 115.765C104.118 115.765 105.105 116.01 105.973 116.5C106.855 116.976 107.541 117.641 108.031 118.495C108.535 119.335 108.787 120.315 108.787 121.435C108.787 122.541 108.535 123.521 108.031 124.375C107.541 125.229 106.855 125.901 105.973 126.391C105.105 126.881 104.118 127.126 103.012 127.126ZM103.012 125.362C103.726 125.362 104.363 125.201 104.923 124.879C105.497 124.557 105.945 124.102 106.267 123.514C106.589 122.912 106.75 122.219 106.75 121.435C106.75 120.637 106.589 119.951 106.267 119.377C105.945 118.789 105.497 118.334 104.923 118.012C104.363 117.69 103.726 117.529 103.012 117.529C102.298 117.529 101.661 117.69 101.101 118.012C100.541 118.334 100.093 118.789 99.757 119.377C99.421 119.951 99.253 120.637 99.253 121.435C99.253 122.219 99.421 122.912 99.757 123.514C100.093 124.102 100.541 124.557 101.101 124.879C101.661 125.201 102.298 125.362 103.012 125.362ZM117.518 115.765C118.428 115.765 119.226 115.94 119.912 116.29C120.612 116.64 121.158 117.172 121.55 117.886C121.942 118.6 122.138 119.503 122.138 120.595V127H120.122V120.826C120.122 119.748 119.856 118.936 119.324 118.39C118.806 117.844 118.071 117.571 117.119 117.571C116.405 117.571 115.782 117.711 115.25 117.991C114.718 118.271 114.305 118.684 114.011 119.23C113.731 119.776 113.591 120.455 113.591 121.267V127H111.575V115.87H113.507V118.873L113.192 118.075C113.556 117.347 114.116 116.78 114.872 116.374C115.628 115.968 116.51 115.765 117.518 115.765ZM125.869 127V115.87H127.885V127H125.869ZM126.877 113.728C126.485 113.728 126.156 113.602 125.89 113.35C125.638 113.098 125.512 112.79 125.512 112.426C125.512 112.048 125.638 111.733 125.89 111.481C126.156 111.229 126.485 111.103 126.877 111.103C127.269 111.103 127.591 111.229 127.843 111.481C128.109 111.719 128.242 112.02 128.242 112.384C128.242 112.762 128.116 113.084 127.864 113.35C127.612 113.602 127.283 113.728 126.877 113.728ZM130.663 127V125.698L137.803 116.836L138.202 117.529H130.789V115.87H139.819V117.193L132.679 126.034L132.217 125.341H139.987V127H130.663ZM142.685 127V115.87H144.701V127H142.685ZM143.693 113.728C143.301 113.728 142.972 113.602 142.706 113.35C142.454 113.098 142.328 112.79 142.328 112.426C142.328 112.048 142.454 111.733 142.706 111.481C142.972 111.229 143.301 111.103 143.693 111.103C144.085 111.103 144.407 111.229 144.659 111.481C144.925 111.719 145.058 112.02 145.058 112.384C145.058 112.762 144.932 113.084 144.68 113.35C144.428 113.602 144.099 113.728 143.693 113.728ZM154.494 115.765C155.404 115.765 156.202 115.94 156.888 116.29C157.588 116.64 158.134 117.172 158.526 117.886C158.918 118.6 159.114 119.503 159.114 120.595V127H157.098V120.826C157.098 119.748 156.832 118.936 156.3 118.39C155.782 117.844 155.047 117.571 154.095 117.571C153.381 117.571 152.758 117.711 152.226 117.991C151.694 118.271 151.281 118.684 150.987 119.23C150.707 119.776 150.567 120.455 150.567 121.267V127H148.551V115.87H150.483V118.873L150.168 118.075C150.532 117.347 151.092 116.78 151.848 116.374C152.604 115.968 153.486 115.765 154.494 115.765ZM167.717 131.2C166.695 131.2 165.701 131.053 164.735 130.759C163.783 130.479 163.006 130.073 162.404 129.541L163.37 127.987C163.888 128.435 164.525 128.785 165.281 129.037C166.037 129.303 166.828 129.436 167.654 129.436C168.97 129.436 169.936 129.128 170.552 128.512C171.168 127.896 171.476 126.958 171.476 125.698V123.346L171.686 121.141L171.581 118.915V115.87H173.492V125.488C173.492 127.448 173.002 128.89 172.022 129.814C171.042 130.738 169.607 131.2 167.717 131.2ZM167.465 126.538C166.387 126.538 165.421 126.314 164.567 125.866C163.727 125.404 163.055 124.767 162.551 123.955C162.061 123.143 161.816 122.205 161.816 121.141C161.816 120.063 162.061 119.125 162.551 118.327C163.055 117.515 163.727 116.885 164.567 116.437C165.421 115.989 166.387 115.765 167.465 115.765C168.417 115.765 169.285 115.961 170.069 116.353C170.853 116.731 171.476 117.319 171.938 118.117C172.414 118.915 172.652 119.923 172.652 121.141C172.652 122.345 172.414 123.346 171.938 124.144C171.476 124.942 170.853 125.544 170.069 125.95C169.285 126.342 168.417 126.538 167.465 126.538ZM167.696 124.774C168.438 124.774 169.096 124.62 169.67 124.312C170.244 124.004 170.692 123.577 171.014 123.031C171.35 122.485 171.518 121.855 171.518 121.141C171.518 120.427 171.35 119.797 171.014 119.251C170.692 118.705 170.244 118.285 169.67 117.991C169.096 117.683 168.438 117.529 167.696 117.529C166.954 117.529 166.289 117.683 165.701 117.991C165.127 118.285 164.672 118.705 164.336 119.251C164.014 119.797 163.853 120.427 163.853 121.141C163.853 121.855 164.014 122.485 164.336 123.031C164.672 123.577 165.127 124.004 165.701 124.312C166.289 124.62 166.954 124.774 167.696 124.774ZM186.805 127.126C185.685 127.126 184.817 126.825 184.201 126.223C183.585 125.621 183.277 124.76 183.277 123.64V113.434H185.293V123.556C185.293 124.158 185.44 124.62 185.734 124.942C186.042 125.264 186.476 125.425 187.036 125.425C187.666 125.425 188.191 125.25 188.611 124.9L189.241 126.349C188.933 126.615 188.562 126.811 188.128 126.937C187.708 127.063 187.267 127.126 186.805 127.126ZM181.387 117.529V115.87H188.485V117.529H181.387ZM197.622 115.765C198.532 115.765 199.33 115.94 200.016 116.29C200.716 116.64 201.262 117.172 201.654 117.886C202.046 118.6 202.242 119.503 202.242 120.595V127H200.226V120.826C200.226 119.748 199.96 118.936 199.428 118.39C198.91 117.844 198.175 117.571 197.223 117.571C196.509 117.571 195.886 117.711 195.354 117.991C194.822 118.271 194.409 118.684 194.115 119.23C193.835 119.776 193.695 120.455 193.695 121.267V127H191.679V111.418H193.695V118.873L193.296 118.075C193.66 117.347 194.22 116.78 194.976 116.374C195.732 115.968 196.614 115.765 197.622 115.765ZM210.929 127.126C209.739 127.126 208.689 126.881 207.779 126.391C206.883 125.901 206.183 125.229 205.679 124.375C205.189 123.521 204.944 122.541 204.944 121.435C204.944 120.329 205.182 119.349 205.658 118.495C206.148 117.641 206.813 116.976 207.653 116.5C208.507 116.01 209.466 115.765 210.53 115.765C211.608 115.765 212.56 116.003 213.386 116.479C214.212 116.955 214.856 117.627 215.318 118.495C215.794 119.349 216.032 120.35 216.032 121.498C216.032 121.582 216.025 121.68 216.011 121.792C216.011 121.904 216.004 122.009 215.99 122.107H206.519V120.658H214.94L214.121 121.162C214.135 120.448 213.988 119.811 213.68 119.251C213.372 118.691 212.945 118.257 212.399 117.949C211.867 117.627 211.244 117.466 210.53 117.466C209.83 117.466 209.207 117.627 208.661 117.949C208.115 118.257 207.688 118.698 207.38 119.272C207.072 119.832 206.918 120.476 206.918 121.204V121.54C206.918 122.282 207.086 122.947 207.422 123.535C207.772 124.109 208.255 124.557 208.871 124.879C209.487 125.201 210.194 125.362 210.992 125.362C211.65 125.362 212.245 125.25 212.777 125.026C213.323 124.802 213.799 124.466 214.205 124.018L215.318 125.32C214.814 125.908 214.184 126.356 213.428 126.664C212.686 126.972 211.853 127.126 210.929 127.126ZM223.043 131.2C222.581 131.2 222.14 131.144 221.72 131.032C221.286 130.92 220.922 130.752 220.628 130.528L221.279 128.974C221.699 129.324 222.245 129.499 222.917 129.499C223.449 129.499 223.855 129.331 224.135 128.995C224.429 128.673 224.576 128.19 224.576 127.546V115.87H226.592V127.504C226.592 128.638 226.284 129.534 225.668 130.192C225.066 130.864 224.191 131.2 223.043 131.2ZM225.584 113.728C225.192 113.728 224.863 113.602 224.597 113.35C224.345 113.098 224.219 112.79 224.219 112.426C224.219 112.048 224.345 111.733 224.597 111.481C224.863 111.229 225.192 111.103 225.584 111.103C225.976 111.103 226.298 111.229 226.55 111.481C226.816 111.719 226.949 112.02 226.949 112.384C226.949 112.762 226.823 113.084 226.571 113.35C226.319 113.602 225.99 113.728 225.584 113.728ZM235.205 127.126C234.085 127.126 233.091 126.881 232.223 126.391C231.355 125.901 230.669 125.229 230.165 124.375C229.661 123.507 229.409 122.527 229.409 121.435C229.409 120.329 229.661 119.349 230.165 118.495C230.669 117.641 231.355 116.976 232.223 116.5C233.091 116.01 234.085 115.765 235.205 115.765C236.311 115.765 237.298 116.01 238.166 116.5C239.048 116.976 239.734 117.641 240.224 118.495C240.728 119.335 240.98 120.315 240.98 121.435C240.98 122.541 240.728 123.521 240.224 124.375C239.734 125.229 239.048 125.901 238.166 126.391C237.298 126.881 236.311 127.126 235.205 127.126ZM235.205 125.362C235.919 125.362 236.556 125.201 237.116 124.879C237.69 124.557 238.138 124.102 238.46 123.514C238.782 122.912 238.943 122.219 238.943 121.435C238.943 120.637 238.782 119.951 238.46 119.377C238.138 118.789 237.69 118.334 237.116 118.012C236.556 117.69 235.919 117.529 235.205 117.529C234.491 117.529 233.854 117.69 233.294 118.012C232.734 118.334 232.286 118.789 231.95 119.377C231.614 119.951 231.446 120.637 231.446 121.435C231.446 122.219 231.614 122.912 231.95 123.514C232.286 124.102 232.734 124.557 233.294 124.879C233.854 125.201 234.491 125.362 235.205 125.362ZM249.669 127.126C248.717 127.126 247.856 126.916 247.086 126.496C246.33 126.062 245.728 125.425 245.28 124.585C244.846 123.745 244.629 122.695 244.629 121.435C244.629 120.175 244.853 119.125 245.301 118.285C245.763 117.445 246.372 116.815 247.128 116.395C247.898 115.975 248.745 115.765 249.669 115.765C250.761 115.765 251.727 116.003 252.567 116.479C253.407 116.955 254.072 117.62 254.562 118.474C255.052 119.314 255.297 120.301 255.297 121.435C255.297 122.569 255.052 123.563 254.562 124.417C254.072 125.271 253.407 125.936 252.567 126.412C251.727 126.888 250.761 127.126 249.669 127.126ZM243.768 127V111.418H245.784V118.831L245.574 121.414L245.7 123.997V127H243.768ZM249.501 125.362C250.215 125.362 250.852 125.201 251.412 124.879C251.986 124.557 252.434 124.102 252.756 123.514C253.092 122.912 253.26 122.219 253.26 121.435C253.26 120.637 253.092 119.951 252.756 119.377C252.434 118.789 251.986 118.334 251.412 118.012C250.852 117.69 250.215 117.529 249.501 117.529C248.801 117.529 248.164 117.69 247.59 118.012C247.03 118.334 246.582 118.789 246.246 119.377C245.924 119.951 245.763 120.637 245.763 121.435C245.763 122.219 245.924 122.912 246.246 123.514C246.582 124.102 247.03 124.557 247.59 124.879C248.164 125.201 248.801 125.362 249.501 125.362ZM277.646 115.765C278.542 115.765 279.333 115.94 280.019 116.29C280.705 116.64 281.237 117.172 281.615 117.886C282.007 118.6 282.203 119.503 282.203 120.595V127H280.187V120.826C280.187 119.748 279.935 118.936 279.431 118.39C278.927 117.844 278.22 117.571 277.31 117.571C276.638 117.571 276.05 117.711 275.546 117.991C275.042 118.271 274.65 118.684 274.37 119.23C274.104 119.776 273.971 120.455 273.971 121.267V127H271.955V120.826C271.955 119.748 271.703 118.936 271.199 118.39C270.709 117.844 270.002 117.571 269.078 117.571C268.42 117.571 267.839 117.711 267.335 117.991C266.831 118.271 266.439 118.684 266.159 119.23C265.879 119.776 265.739 120.455 265.739 121.267V127H263.723V115.87H265.655V118.831L265.34 118.075C265.69 117.347 266.229 116.78 266.957 116.374C267.685 115.968 268.532 115.765 269.498 115.765C270.562 115.765 271.479 116.031 272.249 116.563C273.019 117.081 273.523 117.872 273.761 118.936L272.942 118.6C273.278 117.746 273.866 117.06 274.706 116.542C275.546 116.024 276.526 115.765 277.646 115.765ZM292.821 127V124.648L292.716 124.207V120.196C292.716 119.342 292.464 118.684 291.96 118.222C291.47 117.746 290.728 117.508 289.734 117.508C289.076 117.508 288.432 117.62 287.802 117.844C287.172 118.054 286.64 118.341 286.206 118.705L285.366 117.193C285.94 116.731 286.626 116.381 287.424 116.143C288.236 115.891 289.083 115.765 289.965 115.765C291.491 115.765 292.667 116.136 293.493 116.878C294.319 117.62 294.732 118.754 294.732 120.28V127H292.821ZM289.167 127.126C288.341 127.126 287.613 126.986 286.983 126.706C286.367 126.426 285.891 126.041 285.555 125.551C285.219 125.047 285.051 124.48 285.051 123.85C285.051 123.248 285.191 122.702 285.471 122.212C285.765 121.722 286.234 121.33 286.878 121.036C287.536 120.742 288.418 120.595 289.524 120.595H293.052V122.044H289.608C288.6 122.044 287.921 122.212 287.571 122.548C287.221 122.884 287.046 123.29 287.046 123.766C287.046 124.312 287.263 124.753 287.697 125.089C288.131 125.411 288.733 125.572 289.503 125.572C290.259 125.572 290.917 125.404 291.477 125.068C292.051 124.732 292.464 124.242 292.716 123.598L293.115 124.984C292.849 125.642 292.38 126.167 291.708 126.559C291.036 126.937 290.189 127.126 289.167 127.126ZM298.463 127V115.87H300.395V118.894L300.206 118.138C300.514 117.368 301.032 116.78 301.76 116.374C302.488 115.968 303.384 115.765 304.448 115.765V117.718C304.364 117.704 304.28 117.697 304.196 117.697C304.126 117.697 304.056 117.697 303.986 117.697C302.908 117.697 302.054 118.019 301.424 118.663C300.794 119.307 300.479 120.238 300.479 121.456V127H298.463ZM308.57 124.312L308.612 121.729L315.017 115.87H317.453L312.539 120.7L311.447 121.624L308.57 124.312ZM306.932 127V111.418H308.948V127H306.932ZM315.437 127L311.069 121.582L312.371 119.965L317.915 127H315.437ZM324.378 127.126C323.188 127.126 322.138 126.881 321.228 126.391C320.332 125.901 319.632 125.229 319.128 124.375C318.638 123.521 318.393 122.541 318.393 121.435C318.393 120.329 318.631 119.349 319.107 118.495C319.597 117.641 320.262 116.976 321.102 116.5C321.956 116.01 322.915 115.765 323.979 115.765C325.057 115.765 326.009 116.003 326.835 116.479C327.661 116.955 328.305 117.627 328.767 118.495C329.243 119.349 329.481 120.35 329.481 121.498C329.481 121.582 329.474 121.68 329.46 121.792C329.46 121.904 329.453 122.009 329.439 122.107H319.968V120.658H328.389L327.57 121.162C327.584 120.448 327.437 119.811 327.129 119.251C326.821 118.691 326.394 118.257 325.848 117.949C325.316 117.627 324.693 117.466 323.979 117.466C323.279 117.466 322.656 117.627 322.11 117.949C321.564 118.257 321.137 118.698 320.829 119.272C320.521 119.832 320.367 120.476 320.367 121.204V121.54C320.367 122.282 320.535 122.947 320.871 123.535C321.221 124.109 321.704 124.557 322.32 124.879C322.936 125.201 323.643 125.362 324.441 125.362C325.099 125.362 325.694 125.25 326.226 125.026C326.772 124.802 327.248 124.466 327.654 124.018L328.767 125.32C328.263 125.908 327.633 126.356 326.877 126.664C326.135 126.972 325.302 127.126 324.378 127.126ZM336.102 127.126C334.982 127.126 334.114 126.825 333.498 126.223C332.882 125.621 332.574 124.76 332.574 123.64V113.434H334.59V123.556C334.59 124.158 334.737 124.62 335.031 124.942C335.339 125.264 335.773 125.425 336.333 125.425C336.963 125.425 337.488 125.25 337.908 124.9L338.538 126.349C338.23 126.615 337.859 126.811 337.425 126.937C337.005 127.063 336.564 127.126 336.102 127.126ZM330.684 117.529V115.87H337.782V117.529H330.684ZM348.967 127L344.83 115.87H346.741L350.416 125.95H349.513L353.335 115.87H355.036L358.774 125.95H357.892L361.651 115.87H363.457L359.299 127H357.367L353.86 117.802H354.448L350.899 127H348.967ZM365.503 127V115.87H367.519V127H365.503ZM366.511 113.728C366.119 113.728 365.79 113.602 365.524 113.35C365.272 113.098 365.146 112.79 365.146 112.426C365.146 112.048 365.272 111.733 365.524 111.481C365.79 111.229 366.119 111.103 366.511 111.103C366.903 111.103 367.225 111.229 367.477 111.481C367.743 111.719 367.876 112.02 367.876 112.384C367.876 112.762 367.75 113.084 367.498 113.35C367.246 113.602 366.917 113.728 366.511 113.728ZM375.19 127.126C374.07 127.126 373.202 126.825 372.586 126.223C371.97 125.621 371.662 124.76 371.662 123.64V113.434H373.678V123.556C373.678 124.158 373.825 124.62 374.119 124.942C374.427 125.264 374.861 125.425 375.421 125.425C376.051 125.425 376.576 125.25 376.996 124.9L377.626 126.349C377.318 126.615 376.947 126.811 376.513 126.937C376.093 127.063 375.652 127.126 375.19 127.126ZM369.772 117.529V115.87H376.87V117.529H369.772ZM386.006 115.765C386.916 115.765 387.714 115.94 388.4 116.29C389.1 116.64 389.646 117.172 390.038 117.886C390.43 118.6 390.626 119.503 390.626 120.595V127H388.61V120.826C388.61 119.748 388.344 118.936 387.812 118.39C387.294 117.844 386.559 117.571 385.607 117.571C384.893 117.571 384.27 117.711 383.738 117.991C383.206 118.271 382.793 118.684 382.499 119.23C382.219 119.776 382.079 120.455 382.079 121.267V127H380.063V111.418H382.079V118.873L381.68 118.075C382.044 117.347 382.604 116.78 383.36 116.374C384.116 115.968 384.998 115.765 386.006 115.765ZM398.065 127L404.722 112.3H406.801L413.479 127H411.274L405.331 113.476H406.171L400.228 127H398.065ZM400.9 123.325L401.467 121.645H409.741L410.35 123.325H400.9ZM415.672 127V112.3H417.772V127H415.672Z" fill="#B9FF5E"/>
<path d="M21.1 78C17.0333 78 13.8667 76.9333 11.6 74.8C9.33333 72.6 8.2 69.6 8.2 65.8V11C8.2 9.73333 8.53333 8.76666 9.2 8.09999C9.86667 7.36666 10.7667 7 11.9 7C13.1 7 14.0333 7.36666 14.7 8.09999C15.3667 8.76666 15.7 9.73333 15.7 11V66C15.7 67.7333 16.1667 69.1333 17.1 70.2C18.1 71.2667 19.4 71.8 21 71.8H54.3C56.9 71.8 58.2 72.8333 58.2 74.9C58.2 75.9 57.8667 76.6667 57.2 77.2C56.5333 77.7333 55.5667 78 54.3 78H21.1ZM71.6953 79C70.562 79 69.662 78.6667 68.9953 78C68.3286 77.2667 67.9953 76.2667 67.9953 75V35.9C67.9953 26.8333 70.5286 19.7667 75.5953 14.7C80.7286 9.56666 87.8286 7 96.8953 7C105.895 7 112.962 9.56666 118.095 14.7C123.229 19.8333 125.795 26.9 125.795 35.9V75C125.795 76.2667 125.462 77.2667 124.795 78C124.129 78.6667 123.195 79 121.995 79C120.862 79 119.929 78.6667 119.195 78C118.529 77.2667 118.195 76.2667 118.195 75V52.5H75.4953V75C75.4953 76.2667 75.162 77.2667 74.4953 78C73.8286 78.6667 72.8953 79 71.6953 79ZM118.195 46.3V35.6C118.195 28.4667 116.362 23 112.695 19.2C109.029 15.3333 103.762 13.4 96.8953 13.4C89.962 13.4 84.662 15.3 80.9953 19.1C77.3286 22.9 75.4953 28.4 75.4953 35.6V46.3H118.195ZM151.949 78C147.883 78 144.716 76.9333 142.449 74.8C140.183 72.6 139.049 69.6 139.049 65.8V20C139.049 16.2667 140.149 13.3333 142.349 11.2C144.616 9.06666 147.749 8 151.749 8H175.449C182.183 8 187.416 9.66666 191.149 13C194.883 16.3333 196.749 21.0333 196.749 27.1C196.749 30.5667 195.849 33.6 194.049 36.2C192.249 38.7333 189.783 40.6667 186.649 42V42.2C190.183 43.4667 192.949 45.4667 194.949 48.2C196.949 50.8667 197.949 54.0333 197.949 57.7C197.949 63.9667 196.049 68.9333 192.249 72.6C188.449 76.2 183.249 78 176.649 78H151.949ZM176.249 39.2C180.183 39.2 183.316 38.1 185.649 35.9C187.983 33.7 189.149 30.7667 189.149 27.1C189.149 22.9 187.983 19.7 185.649 17.5C183.316 15.3 179.916 14.2 175.449 14.2H151.849C150.316 14.2 149.049 14.7667 148.049 15.9C147.049 16.9667 146.549 18.3333 146.549 20V39.2H176.249ZM176.249 71.7C180.849 71.7 184.349 70.5333 186.749 68.2C189.149 65.8 190.349 62.3333 190.349 57.8C190.349 53.8667 189.083 50.8 186.549 48.6C184.016 46.4 180.549 45.3 176.149 45.3H146.549V66C146.549 67.6667 147.049 69.0333 148.049 70.1C149.049 71.1667 150.316 71.7 151.849 71.7H176.249ZM239.673 79C232.94 79 226.873 77.5333 221.473 74.6C216.073 71.6 211.807 67.3667 208.673 61.9C205.607 56.4333 204.073 50.1333 204.073 43C204.073 35.8 205.607 29.5 208.673 24.1C211.807 18.6333 216.073 14.4333 221.473 11.5C226.873 8.5 232.94 7 239.673 7C246.407 7 252.473 8.5 257.873 11.5C263.273 14.4333 267.507 18.6333 270.573 24.1C273.707 29.5 275.273 35.8 275.273 43C275.273 50.1333 273.707 56.4333 270.573 61.9C267.507 67.3667 263.273 71.6 257.873 74.6C252.473 77.5333 246.407 79 239.673 79ZM239.673 72.6C245.073 72.6 249.873 71.4333 254.073 69.1C258.34 66.7667 261.673 63.4 264.073 59C266.54 54.5333 267.773 49.2 267.773 43C267.773 36.7333 266.507 31.3667 263.973 26.9C261.507 22.4333 258.107 19.0667 253.773 16.8C249.507 14.5333 244.74 13.4 239.473 13.4C234.14 13.4 229.34 14.5667 225.073 16.9C220.873 19.2333 217.573 22.6333 215.173 27.1C212.773 31.5667 211.573 36.8667 211.573 43C211.573 49.2 212.773 54.5333 215.173 59C217.64 63.4 220.973 66.7667 225.173 69.1C229.44 71.4333 234.273 72.6 239.673 72.6ZM286.105 20.5C286.105 16.7 287.205 13.6667 289.405 11.4C291.671 9.13333 294.938 8 299.205 8H317.905C336.038 8 345.105 15.5333 345.105 30.6C345.105 37.8667 342.905 43.3667 338.505 47.1C334.105 50.8333 327.471 52.7 318.605 52.7L338.005 72.8C338.605 73.4 338.905 74.1667 338.905 75.1C338.905 76.3 338.405 77.2667 337.405 78C336.605 78.6 335.771 78.9 334.905 78.9C333.571 78.9 332.305 78.2333 331.105 76.9L308.105 52.7H294.605V74.7C294.605 76.0333 294.205 77.1 293.405 77.9C292.671 78.6333 291.638 79 290.305 79C288.971 79 287.938 78.6333 287.205 77.9C286.471 77.1 286.105 76.0333 286.105 74.7V20.5ZM318.405 45.8C324.538 45.8 329.071 44.6667 332.005 42.4C335.005 40.0667 336.505 36.1333 336.505 30.6C336.505 25 335.005 21 332.005 18.6C329.005 16.1333 324.471 14.9 318.405 14.9H299.705C298.171 14.9 296.938 15.4 296.005 16.4C295.071 17.4 294.605 18.7667 294.605 20.5V45.8H318.405ZM386.445 79C379.712 79 373.645 77.5333 368.245 74.6C362.845 71.6 358.579 67.3667 355.445 61.9C352.379 56.4333 350.845 50.1333 350.845 43C350.845 35.8 352.379 29.5 355.445 24.1C358.579 18.6333 362.845 14.4333 368.245 11.5C373.645 8.5 379.712 7 386.445 7C393.179 7 399.245 8.5 404.645 11.5C410.045 14.4333 414.279 18.6333 417.345 24.1C420.479 29.5 422.045 35.8 422.045 43C422.045 50.1333 420.479 56.4333 417.345 61.9C414.279 67.3667 410.045 71.6 404.645 74.6C399.245 77.5333 393.179 79 386.445 79ZM386.445 72.6C391.845 72.6 396.645 71.4333 400.845 69.1C405.112 66.7667 408.445 63.4 410.845 59C413.312 54.5333 414.545 49.2 414.545 43C414.545 36.7333 413.279 31.3667 410.745 26.9C408.279 22.4333 404.879 19.0667 400.545 16.8C396.279 14.5333 391.512 13.4 386.245 13.4C380.912 13.4 376.112 14.5667 371.845 16.9C367.645 19.2333 364.345 22.6333 361.945 27.1C359.545 31.5667 358.345 36.8667 358.345 43C358.345 49.2 359.545 54.5333 361.945 59C364.412 63.4 367.745 66.7667 371.945 69.1C376.212 71.4333 381.045 72.6 386.445 72.6Z" fill="white"/>
<path d="M257 55C257 55 251.75 63.5 239.75 63.5C227.75 63.5 223 55 223 55" stroke="#B9FF5E" stroke-width="5" stroke-linecap="round"/>
</svg>
