<svg width="35" height="16" viewBox="0 0 35 16" fill="none" xmlns="http://www.w3.org/2000/svg">
<path d="M1 6.80126C0.447716 6.80126 3.01768e-08 7.24897 0 7.80126C-3.0176e-08 8.35354 0.447716 8.80126 1 8.80126L1 6.80126ZM34.7071 8.50838C35.0976 8.11785 35.0976 7.48469 34.7071 7.09416L28.3431 0.730199C27.9526 0.339676 27.3195 0.339675 26.9289 0.730199C26.5384 1.12072 26.5384 1.75389 26.9289 2.14441L32.5858 7.80127L26.9289 13.4581C26.5384 13.8486 26.5384 14.4818 26.9289 14.8723C27.3195 15.2629 27.9526 15.2629 28.3431 14.8723L34.7071 8.50838ZM1 8.80126L34 8.80127L34 6.80127L1 6.80126L1 8.80126Z" fill="#1F1D20"/>
</svg>
