<svg width="116" height="24" viewBox="0 0 116 24" fill="none" xmlns="http://www.w3.org/2000/svg">
<path d="M11 0L13.4697 8.2918H21.4616L14.996 13.4164L17.4656 21.7082L11 16.5836L4.53436 21.7082L7.00402 13.4164L0.538379 8.2918H8.53035L11 0Z" fill="#FF832A"/>
<path d="M34 0L36.6942 8.2918H45.4127L38.3593 13.4164L41.0534 21.7082L34 16.5836L26.9466 21.7082L29.6407 13.4164L22.5873 8.2918H31.3058L34 0Z" fill="#FF832A"/>
<path d="M57.5 0L60.0819 8.2918H68.4371L61.6776 13.4164L64.2595 21.7082L57.5 16.5836L50.7405 21.7082L53.3224 13.4164L46.5628 8.2918H54.9181L57.5 0Z" fill="#FF832A"/>
<path d="M81 0L83.6942 8.2918H92.4127L85.3593 13.4164L88.0534 21.7082L81 16.5836L73.9466 21.7082L76.6407 13.4164L69.5873 8.2918H78.3058L81 0Z" fill="#FF832A"/>
<path d="M104.5 0L107.082 8.2918H115.437L108.678 13.4164L111.26 21.7082L104.5 16.5836L97.7405 21.7082L100.322 13.4164L93.5628 8.2918H101.918L104.5 0Z" fill="#FF832A"/>
</svg>
