<svg width="26" height="19" viewBox="0 0 26 19" fill="none" xmlns="http://www.w3.org/2000/svg">
<path d="M5.05599 17.9999C5.13832 18 5.22318 18 5.31067 18H12.8164M5.05599 17.9999C3.77776 17.9989 3.10727 17.9813 2.58791 17.6915C2.10118 17.4198 1.70573 16.9853 1.45773 16.4521C1.17578 15.8461 1.17578 15.0538 1.17578 13.4669V5.53361C1.17578 3.94679 1.17578 3.1528 1.45773 2.54671C1.70573 2.01359 2.10118 1.58046 2.58791 1.30881C3.14126 1 3.86618 1 5.31492 1H20.3184C21.7671 1 22.4905 1 23.0439 1.30881C23.5306 1.58046 23.9274 2.01359 24.1754 2.54671C24.457 3.1522 24.457 3.94524 24.457 5.52896V13.471C24.457 15.0548 24.457 15.8467 24.1754 16.4521C23.9274 16.9853 23.5306 17.4198 23.0439 17.6915C22.491 18 21.7681 18 20.3221 18H12.8164M5.05599 17.9999C5.05604 16.4352 6.79325 15.1667 8.9362 15.1667C11.0792 15.1667 12.8164 16.4352 12.8164 18M5.05599 17.9999C5.05599 18 5.05599 17.9999 5.05599 17.9999ZM20.5768 12.3333H15.4032M20.5768 8.08333H16.6966M8.9362 10.9167C7.50754 10.9167 6.34939 9.64814 6.34939 8.08333C6.34939 6.51853 7.50754 5.25 8.9362 5.25C10.3649 5.25 11.523 6.51853 11.523 8.08333C11.523 9.64814 10.3649 10.9167 8.9362 10.9167Z" stroke="#4420B2" stroke-width="2" stroke-linecap="round" stroke-linejoin="round"/>
</svg>
