<svg width="61" height="16" viewBox="0 0 61 16" fill="none" xmlns="http://www.w3.org/2000/svg">
<path d="M0.363206 7.29289C-0.0273186 7.68342 -0.0273186 8.31658 0.363206 8.70711L6.72717 15.0711C7.11769 15.4616 7.75086 15.4616 8.14138 15.0711C8.5319 14.6805 8.5319 14.0474 8.14138 13.6569L2.48453 8L8.14138 2.34315C8.5319 1.95262 8.5319 1.31946 8.14138 0.928932C7.75086 0.538408 7.11769 0.538408 6.72717 0.928932L0.363206 7.29289ZM59.2656 9C59.8179 9 60.2656 8.55228 60.2656 8C60.2656 7.44772 59.8179 7 59.2656 7V9ZM1.07031 9H59.2656V7H1.07031V9Z" fill="#1F1D20"/>
</svg>
