<svg width="22" height="22" viewBox="0 0 22 22" fill="none" xmlns="http://www.w3.org/2000/svg">
<circle cx="11" cy="11" r="11" fill="#FF832A"/>
<path d="M9.784 16C8.584 16 7.69867 15.7173 7.128 15.152C6.56267 14.5813 6.28 13.696 6.28 12.496V8.832C6.28 7.62133 6.56267 6.73333 7.128 6.168C7.69333 5.60267 8.57333 5.32267 9.768 5.328H11.704C12.696 5.328 13.448 5.536 13.96 5.952C14.472 6.36267 14.7653 7.01333 14.84 7.904C14.8667 8.10133 14.8293 8.25333 14.728 8.36C14.6267 8.46133 14.4773 8.512 14.28 8.512C13.9227 8.512 13.7173 8.31467 13.664 7.92C13.616 7.376 13.4427 7.00533 13.144 6.808C12.8453 6.60533 12.3653 6.504 11.704 6.504H9.768C9.18667 6.504 8.728 6.576 8.392 6.72C8.056 6.85867 7.816 7.09867 7.672 7.44C7.528 7.776 7.456 8.24 7.456 8.832V12.496C7.456 13.0827 7.528 13.5467 7.672 13.888C7.816 14.224 8.056 14.464 8.392 14.608C8.73333 14.752 9.19733 14.824 9.784 14.824H11.704C12.3653 14.824 12.8453 14.7253 13.144 14.528C13.4427 14.3253 13.616 13.952 13.664 13.408C13.7173 13.0133 13.9227 12.816 14.28 12.816C14.4773 12.816 14.6267 12.8693 14.728 12.976C14.8293 13.0773 14.8667 13.2267 14.84 13.424C14.7653 14.32 14.472 14.9733 13.96 15.384C13.448 15.7947 12.696 16 11.704 16H9.784Z" fill="white"/>
</svg>
