<svg width="169" height="134" viewBox="0 0 169 134" fill="none" xmlns="http://www.w3.org/2000/svg">
<path fill-rule="evenodd" clip-rule="evenodd" d="M84.0986 44.1971C84.0984 44.5254 84.0947 44.853 84.0877 45.1796H84.0987H84.1096C84.1026 44.853 84.0989 44.5254 84.0986 44.1971ZM84.0986 44.1221C84.0792 19.7506 65.2605 0 42.0493 0C18.8261 0 0 19.7711 0 44.1599C0 44.5007 0.0036764 44.8406 0.0109898 45.1796H0C0 62.5039 2.91111 85.4447 28.7876 106.664C52.4123 126.036 72.991 130.883 83.6815 133.401L84.0987 133.499L84.5158 133.401C95.2063 130.883 115.785 126.036 139.41 106.664C165.286 85.4447 168.197 62.5039 168.197 45.1796H168.186C168.194 44.8406 168.197 44.5007 168.197 44.1599C168.197 19.7711 149.371 0 126.148 0C102.937 0 84.1181 19.7506 84.0986 44.1221Z" fill="#4420B2"/>
</svg>
