<svg width="16" height="22" viewBox="0 0 16 22" fill="none" xmlns="http://www.w3.org/2000/svg">
<path d="M14.9914 8.11874L13.9927 8.06795L13.9393 9.11874H14.9914V8.11874ZM1.0086 8.11874V9.11874H2.06075L2.00731 8.06795L1.0086 8.11874ZM1 8.11874V7.11874H0V8.11874H1ZM15 8.11874H16V7.11874H15V8.11874ZM14 7.77966C14 7.87642 13.9975 7.97253 13.9927 8.06795L15.9901 8.16953C15.9967 8.04029 16 7.91031 16 7.77966H14ZM8 2C11.3441 2 14 4.61755 14 7.77966H16C16 3.45317 12.3879 0 8 0V2ZM2 7.77966C2 4.61755 4.6559 2 8 2V0C3.61211 0 0 3.45317 0 7.77966H2ZM2.00731 8.06795C2.00246 7.97253 2 7.87641 2 7.77966H0C0 7.91031 0.00332078 8.04029 0.00989323 8.16953L2.00731 8.06795ZM1 9.11874H1.0086V7.11874H1V9.11874ZM8 20.0001C7.56673 20.0001 6.96661 19.757 6.25007 19.1055C5.54949 18.4686 4.83601 17.5272 4.19428 16.3644C2.9088 14.035 2 10.9794 2 8.11874H0C0 11.3597 1.0162 14.7448 2.44322 17.3307C3.15774 18.6255 3.99739 19.7605 4.90462 20.5853C5.79589 21.3957 6.85827 22.0001 8 22.0001V20.0001ZM14 8.11874C14 11.1548 13.0881 14.2077 11.8093 16.485C11.1704 17.6229 10.4602 18.5306 9.76361 19.141C9.05431 19.7626 8.4494 20.0001 8 20.0001V22.0001C9.1256 22.0001 10.1832 21.4326 11.0817 20.6452C11.9929 19.8467 12.8359 18.7417 13.5532 17.4643C14.9869 14.9111 16 11.5234 16 8.11874H14ZM14.9914 9.11874H15V7.11874H14.9914V9.11874Z" fill="#1F1D20"/>
<ellipse cx="7.99922" cy="7.77949" rx="2.8" ry="2.71186" fill="#1F1D20"/>
</svg>
