<svg width="196" height="236" viewBox="0 0 196 236" fill="none" xmlns="http://www.w3.org/2000/svg">
<rect x="0.5" y="0.5" width="195" height="235" fill="white" stroke="#1F1D20"/>
<path d="M62.65 23C62.354 23 62.206 22.852 62.206 22.556V15.44C62.206 15.144 62.354 14.996 62.65 14.996C62.846 14.996 63.008 15.092 63.136 15.284L66.022 19.646L65.83 19.676L68.728 15.284C68.848 15.092 69.026 14.996 69.262 14.996C69.506 14.996 69.628 15.144 69.628 15.44V22.556C69.628 22.852 69.482 23 69.19 23C68.894 23 68.746 22.852 68.746 22.556V16.322L69.016 16.412L66.412 20.294C66.284 20.482 66.106 20.576 65.878 20.576C65.71 20.576 65.562 20.482 65.434 20.294L62.83 16.412L63.088 16.49V22.556C63.088 22.852 62.942 23 62.65 23ZM73.85 23C73.194 23 72.708 22.842 72.392 22.526C72.076 22.21 71.918 21.724 71.918 21.068C71.918 20.412 72.074 19.926 72.386 19.61C72.702 19.294 73.19 19.136 73.85 19.136H76.448C76.432 18.68 76.32 18.366 76.112 18.194C75.904 18.022 75.55 17.936 75.05 17.936H74.354C73.918 17.936 73.594 17.972 73.382 18.044C73.174 18.116 73.034 18.242 72.962 18.422C72.906 18.566 72.844 18.668 72.776 18.728C72.712 18.784 72.612 18.812 72.476 18.812C72.328 18.812 72.212 18.772 72.128 18.692C72.048 18.608 72.024 18.498 72.056 18.362C72.152 17.91 72.388 17.58 72.764 17.372C73.14 17.16 73.67 17.054 74.354 17.054H75.05C75.83 17.054 76.406 17.24 76.778 17.612C77.15 17.984 77.336 18.56 77.336 19.34V22.556C77.336 22.852 77.19 23 76.898 23C76.602 23 76.454 22.852 76.454 22.556V22.178C76.042 22.726 75.398 23 74.522 23H73.85ZM73.85 22.118H74.522C74.846 22.118 75.144 22.086 75.416 22.022C75.688 21.958 75.916 21.846 76.1 21.686C76.284 21.526 76.402 21.302 76.454 21.014V20.018H73.85C73.438 20.018 73.16 20.092 73.016 20.24C72.872 20.384 72.8 20.66 72.8 21.068C72.8 21.48 72.872 21.758 73.016 21.902C73.16 22.046 73.438 22.118 73.85 22.118ZM80.0758 23C79.7798 23 79.6318 22.852 79.6318 22.556V17.492C79.6318 17.2 79.7798 17.054 80.0758 17.054C80.3678 17.054 80.5138 17.2 80.5138 17.492V18.116C80.7418 17.768 81.0418 17.504 81.4138 17.324C81.7898 17.144 82.2258 17.054 82.7218 17.054C83.0178 17.054 83.1658 17.2 83.1658 17.492C83.1658 17.788 83.0178 17.936 82.7218 17.936C82.0218 17.936 81.4858 18.076 81.1138 18.356C80.7418 18.632 80.5418 19.01 80.5138 19.49V22.556C80.5138 22.852 80.3678 23 80.0758 23ZM86.3653 23C85.5853 23 85.0073 22.814 84.6313 22.442C84.2593 22.066 84.0733 21.488 84.0733 20.708V19.328C84.0733 18.548 84.2573 17.972 84.6253 17.6C84.9973 17.228 85.5773 17.046 86.3653 17.054H87.3493C87.9413 17.054 88.4033 17.154 88.7353 17.354C89.0673 17.554 89.2753 17.862 89.3593 18.278C89.3873 18.426 89.3593 18.54 89.2753 18.62C89.1953 18.7 89.0793 18.74 88.9273 18.74C88.7913 18.74 88.6913 18.706 88.6273 18.638C88.5633 18.566 88.5073 18.466 88.4593 18.338C88.4033 18.19 88.2893 18.086 88.1173 18.026C87.9493 17.966 87.6933 17.936 87.3493 17.936H86.3653C85.8293 17.928 85.4593 18.024 85.2553 18.224C85.0553 18.42 84.9553 18.788 84.9553 19.328V20.708C84.9553 21.248 85.0553 21.618 85.2553 21.818C85.4593 22.018 85.8293 22.118 86.3653 22.118H87.3493C87.6933 22.118 87.9493 22.088 88.1173 22.028C88.2893 21.968 88.4033 21.862 88.4593 21.71C88.5073 21.578 88.5633 21.478 88.6273 21.41C88.6913 21.342 88.7933 21.308 88.9333 21.308C89.0813 21.308 89.1953 21.35 89.2753 21.434C89.3593 21.514 89.3873 21.626 89.3593 21.77C89.2753 22.186 89.0673 22.496 88.7353 22.7C88.4033 22.9 87.9413 23 87.3493 23H86.3653ZM93.4551 23C92.6751 23 92.0971 22.814 91.7211 22.442C91.3491 22.07 91.1631 21.496 91.1631 20.72V19.34C91.1631 18.552 91.3491 17.974 91.7211 17.606C92.0971 17.234 92.6751 17.05 93.4551 17.054H94.4391C95.2191 17.054 95.7951 17.24 96.1671 17.612C96.5391 17.984 96.7251 18.56 96.7251 19.34V20.708C96.7251 21.488 96.5391 22.066 96.1671 22.442C95.7951 22.814 95.2191 23 94.4391 23H93.4551ZM92.0451 20.72C92.0451 21.252 92.1451 21.618 92.3451 21.818C92.5451 22.018 92.9151 22.118 93.4551 22.118H94.4391C94.9791 22.118 95.3471 22.018 95.5431 21.818C95.7431 21.618 95.8431 21.248 95.8431 20.708V19.34C95.8431 18.8 95.7431 18.432 95.5431 18.236C95.3471 18.036 94.9791 17.936 94.4391 17.936H93.4551C93.0951 17.936 92.8131 17.978 92.6091 18.062C92.4051 18.146 92.2591 18.29 92.1711 18.494C92.0871 18.698 92.0451 18.98 92.0451 19.34V20.72ZM107.633 23.018C107.517 23.094 107.407 23.118 107.303 23.09C107.199 23.062 107.109 22.99 107.033 22.874L105.137 19.766H103.283V22.556C103.283 22.852 103.137 23 102.845 23C102.549 23 102.401 22.852 102.401 22.556V15.44C102.401 15.144 102.549 14.996 102.845 14.996H105.653C106.369 14.996 106.915 15.186 107.291 15.566C107.667 15.942 107.855 16.488 107.855 17.204V17.564C107.855 18.188 107.709 18.684 107.417 19.052C107.129 19.42 106.709 19.646 106.157 19.73L107.795 22.418C107.935 22.666 107.881 22.866 107.633 23.018ZM103.283 18.884H105.653C106.125 18.884 106.463 18.782 106.667 18.578C106.871 18.374 106.973 18.036 106.973 17.564V17.204C106.973 16.732 106.871 16.394 106.667 16.19C106.463 15.982 106.125 15.878 105.653 15.878H103.283V18.884ZM111.818 23C111.038 23 110.46 22.814 110.084 22.442C109.712 22.07 109.526 21.496 109.526 20.72V19.34C109.526 18.552 109.712 17.974 110.084 17.606C110.46 17.234 111.038 17.05 111.818 17.054H112.802C113.582 17.054 114.158 17.24 114.53 17.612C114.902 17.984 115.088 18.56 115.088 19.34V20.708C115.088 21.488 114.902 22.066 114.53 22.442C114.158 22.814 113.582 23 112.802 23H111.818ZM110.408 20.72C110.408 21.252 110.508 21.618 110.708 21.818C110.908 22.018 111.278 22.118 111.818 22.118H112.802C113.342 22.118 113.71 22.018 113.906 21.818C114.106 21.618 114.206 21.248 114.206 20.708V19.34C114.206 18.8 114.106 18.432 113.906 18.236C113.71 18.036 113.342 17.936 112.802 17.936H111.818C111.458 17.936 111.176 17.978 110.972 18.062C110.768 18.146 110.622 18.29 110.534 18.494C110.45 18.698 110.408 18.98 110.408 19.34V20.72ZM118.617 22.994C118.113 22.994 117.719 22.89 117.435 22.682C117.151 22.47 116.973 22.152 116.901 21.728C116.877 21.584 116.905 21.47 116.985 21.386C117.069 21.302 117.185 21.26 117.333 21.26C117.473 21.26 117.575 21.296 117.639 21.368C117.707 21.44 117.761 21.548 117.801 21.692C117.845 21.856 117.929 21.968 118.053 22.028C118.177 22.084 118.365 22.112 118.617 22.112H120.585C120.917 22.112 121.141 22.056 121.257 21.944C121.377 21.828 121.437 21.6 121.437 21.26C121.437 20.92 121.377 20.692 121.257 20.576C121.141 20.46 120.917 20.402 120.585 20.402H118.647C118.091 20.402 117.673 20.264 117.393 19.988C117.113 19.708 116.973 19.29 116.973 18.734C116.973 18.166 117.109 17.744 117.381 17.468C117.657 17.188 118.079 17.048 118.647 17.048H120.525C121.453 17.048 121.991 17.446 122.139 18.242C122.163 18.39 122.133 18.504 122.049 18.584C121.969 18.664 121.855 18.704 121.707 18.704C121.571 18.704 121.469 18.668 121.401 18.596C121.333 18.524 121.281 18.422 121.245 18.29C121.205 18.15 121.129 18.056 121.017 18.008C120.909 17.956 120.745 17.93 120.525 17.93H118.647C118.327 17.93 118.115 17.982 118.011 18.086C117.907 18.19 117.855 18.406 117.855 18.734C117.855 19.038 117.909 19.246 118.017 19.358C118.129 19.466 118.339 19.52 118.647 19.52H120.585C121.169 19.52 121.603 19.664 121.887 19.952C122.175 20.24 122.319 20.676 122.319 21.26C122.319 21.844 122.175 22.28 121.887 22.568C121.603 22.852 121.169 22.994 120.585 22.994H118.617ZM125.742 22.994C125.238 22.994 124.844 22.89 124.56 22.682C124.276 22.47 124.098 22.152 124.026 21.728C124.002 21.584 124.03 21.47 124.11 21.386C124.194 21.302 124.31 21.26 124.458 21.26C124.598 21.26 124.7 21.296 124.764 21.368C124.832 21.44 124.886 21.548 124.926 21.692C124.97 21.856 125.054 21.968 125.178 22.028C125.302 22.084 125.49 22.112 125.742 22.112H127.71C128.042 22.112 128.266 22.056 128.382 21.944C128.502 21.828 128.562 21.6 128.562 21.26C128.562 20.92 128.502 20.692 128.382 20.576C128.266 20.46 128.042 20.402 127.71 20.402H125.772C125.216 20.402 124.798 20.264 124.518 19.988C124.238 19.708 124.098 19.29 124.098 18.734C124.098 18.166 124.234 17.744 124.506 17.468C124.782 17.188 125.204 17.048 125.772 17.048H127.65C128.578 17.048 129.116 17.446 129.264 18.242C129.288 18.39 129.258 18.504 129.174 18.584C129.094 18.664 128.98 18.704 128.832 18.704C128.696 18.704 128.594 18.668 128.526 18.596C128.458 18.524 128.406 18.422 128.37 18.29C128.33 18.15 128.254 18.056 128.142 18.008C128.034 17.956 127.87 17.93 127.65 17.93H125.772C125.452 17.93 125.24 17.982 125.136 18.086C125.032 18.19 124.98 18.406 124.98 18.734C124.98 19.038 125.034 19.246 125.142 19.358C125.254 19.466 125.464 19.52 125.772 19.52H127.71C128.294 19.52 128.728 19.664 129.012 19.952C129.3 20.24 129.444 20.676 129.444 21.26C129.444 21.844 129.3 22.28 129.012 22.568C128.728 22.852 128.294 22.994 127.71 22.994H125.742ZM131.781 16.034C131.437 16.034 131.265 15.858 131.265 15.506V15.182C131.265 14.838 131.437 14.666 131.781 14.666H132.105C132.437 14.666 132.603 14.838 132.603 15.182V15.506C132.603 15.858 132.437 16.034 132.105 16.034H131.781ZM131.943 23C131.647 23 131.499 22.852 131.499 22.556V17.492C131.499 17.2 131.647 17.054 131.943 17.054C132.235 17.054 132.381 17.2 132.381 17.492V22.556C132.381 22.852 132.235 23 131.943 23Z" fill="black"/>
<rect x="27" y="35" width="146" height="5" fill="#D9D9D9"/>
<rect x="27" y="45" width="146" height="5" fill="#D9D9D9"/>
<rect x="27" y="55" width="146" height="5" fill="#D9D9D9"/>
<rect x="27" y="65" width="146" height="5" fill="#D9D9D9"/>
<rect x="27" y="75" width="146" height="5" fill="#D9D9D9"/>
<rect x="27" y="85" width="146" height="5" fill="#D9D9D9"/>
<rect x="27" y="95" width="146" height="5" fill="#D9D9D9"/>
<rect x="27" y="105" width="146" height="5" fill="#D9D9D9"/>
<rect x="27" y="115" width="146" height="5" fill="#D9D9D9"/>
<rect x="27" y="125" width="146" height="5" fill="#D9D9D9"/>
<rect x="27" y="135" width="146" height="5" fill="#D9D9D9"/>
<rect x="27" y="145" width="146" height="5" fill="#D9D9D9"/>
<rect x="27" y="155" width="146" height="5" fill="#D9D9D9"/>
<rect x="27" y="165" width="146" height="5" fill="#D9D9D9"/>
<rect x="27" y="175" width="146" height="5" fill="#D9D9D9"/>
<rect x="27" y="185" width="146" height="5" fill="#D9D9D9"/>
<rect x="27" y="195" width="146" height="5" fill="#D9D9D9"/>
<rect x="27" y="205" width="146" height="5" fill="#D9D9D9"/>
<rect x="27" y="215" width="146" height="5" fill="#D9D9D9"/>
</svg>
