<svg width="196" height="236" viewBox="0 0 196 236" fill="none" xmlns="http://www.w3.org/2000/svg">
<rect x="0.5" y="0.5" width="195" height="235" fill="white" stroke="#C1C1C1"/>
<path d="M91.65 23C91.354 23 91.206 22.852 91.206 22.556V15.44C91.206 15.144 91.354 14.996 91.65 14.996C91.846 14.996 92.008 15.092 92.136 15.284L95.022 19.646L94.83 19.676L97.728 15.284C97.848 15.092 98.026 14.996 98.262 14.996C98.506 14.996 98.628 15.144 98.628 15.44V22.556C98.628 22.852 98.482 23 98.19 23C97.894 23 97.746 22.852 97.746 22.556V16.322L98.016 16.412L95.412 20.294C95.284 20.482 95.106 20.576 94.878 20.576C94.71 20.576 94.562 20.482 94.434 20.294L91.83 16.412L92.088 16.49V22.556C92.088 22.852 91.942 23 91.65 23ZM102.85 23C102.194 23 101.708 22.842 101.392 22.526C101.076 22.21 100.918 21.724 100.918 21.068C100.918 20.412 101.074 19.926 101.386 19.61C101.702 19.294 102.19 19.136 102.85 19.136H105.448C105.432 18.68 105.32 18.366 105.112 18.194C104.904 18.022 104.55 17.936 104.05 17.936H103.354C102.918 17.936 102.594 17.972 102.382 18.044C102.174 18.116 102.034 18.242 101.962 18.422C101.906 18.566 101.844 18.668 101.776 18.728C101.712 18.784 101.612 18.812 101.476 18.812C101.328 18.812 101.212 18.772 101.128 18.692C101.048 18.608 101.024 18.498 101.056 18.362C101.152 17.91 101.388 17.58 101.764 17.372C102.14 17.16 102.67 17.054 103.354 17.054H104.05C104.83 17.054 105.406 17.24 105.778 17.612C106.15 17.984 106.336 18.56 106.336 19.34V22.556C106.336 22.852 106.19 23 105.898 23C105.602 23 105.454 22.852 105.454 22.556V22.178C105.042 22.726 104.398 23 103.522 23H102.85ZM102.85 22.118H103.522C103.846 22.118 104.144 22.086 104.416 22.022C104.688 21.958 104.916 21.846 105.1 21.686C105.284 21.526 105.402 21.302 105.454 21.014V20.018H102.85C102.438 20.018 102.16 20.092 102.016 20.24C101.872 20.384 101.8 20.66 101.8 21.068C101.8 21.48 101.872 21.758 102.016 21.902C102.16 22.046 102.438 22.118 102.85 22.118ZM109.076 23C108.78 23 108.632 22.852 108.632 22.556V17.492C108.632 17.2 108.78 17.054 109.076 17.054C109.368 17.054 109.514 17.2 109.514 17.492V18.116C109.742 17.768 110.042 17.504 110.414 17.324C110.79 17.144 111.226 17.054 111.722 17.054C112.018 17.054 112.166 17.2 112.166 17.492C112.166 17.788 112.018 17.936 111.722 17.936C111.022 17.936 110.486 18.076 110.114 18.356C109.742 18.632 109.542 19.01 109.514 19.49V22.556C109.514 22.852 109.368 23 109.076 23ZM115.365 23C114.585 23 114.007 22.814 113.631 22.442C113.259 22.066 113.073 21.488 113.073 20.708V19.328C113.073 18.548 113.257 17.972 113.625 17.6C113.997 17.228 114.577 17.046 115.365 17.054H116.349C116.941 17.054 117.403 17.154 117.735 17.354C118.067 17.554 118.275 17.862 118.359 18.278C118.387 18.426 118.359 18.54 118.275 18.62C118.195 18.7 118.079 18.74 117.927 18.74C117.791 18.74 117.691 18.706 117.627 18.638C117.563 18.566 117.507 18.466 117.459 18.338C117.403 18.19 117.289 18.086 117.117 18.026C116.949 17.966 116.693 17.936 116.349 17.936H115.365C114.829 17.928 114.459 18.024 114.255 18.224C114.055 18.42 113.955 18.788 113.955 19.328V20.708C113.955 21.248 114.055 21.618 114.255 21.818C114.459 22.018 114.829 22.118 115.365 22.118H116.349C116.693 22.118 116.949 22.088 117.117 22.028C117.289 21.968 117.403 21.862 117.459 21.71C117.507 21.578 117.563 21.478 117.627 21.41C117.691 21.342 117.793 21.308 117.933 21.308C118.081 21.308 118.195 21.35 118.275 21.434C118.359 21.514 118.387 21.626 118.359 21.77C118.275 22.186 118.067 22.496 117.735 22.7C117.403 22.9 116.941 23 116.349 23H115.365ZM122.455 23C121.675 23 121.097 22.814 120.721 22.442C120.349 22.07 120.163 21.496 120.163 20.72V19.34C120.163 18.552 120.349 17.974 120.721 17.606C121.097 17.234 121.675 17.05 122.455 17.054H123.439C124.219 17.054 124.795 17.24 125.167 17.612C125.539 17.984 125.725 18.56 125.725 19.34V20.708C125.725 21.488 125.539 22.066 125.167 22.442C124.795 22.814 124.219 23 123.439 23H122.455ZM121.045 20.72C121.045 21.252 121.145 21.618 121.345 21.818C121.545 22.018 121.915 22.118 122.455 22.118H123.439C123.979 22.118 124.347 22.018 124.543 21.818C124.743 21.618 124.843 21.248 124.843 20.708V19.34C124.843 18.8 124.743 18.432 124.543 18.236C124.347 18.036 123.979 17.936 123.439 17.936H122.455C122.095 17.936 121.813 17.978 121.609 18.062C121.405 18.146 121.259 18.29 121.171 18.494C121.087 18.698 121.045 18.98 121.045 19.34V20.72ZM136.633 23.018C136.517 23.094 136.407 23.118 136.303 23.09C136.199 23.062 136.109 22.99 136.033 22.874L134.137 19.766H132.283V22.556C132.283 22.852 132.137 23 131.845 23C131.549 23 131.401 22.852 131.401 22.556V15.44C131.401 15.144 131.549 14.996 131.845 14.996H134.653C135.369 14.996 135.915 15.186 136.291 15.566C136.667 15.942 136.855 16.488 136.855 17.204V17.564C136.855 18.188 136.709 18.684 136.417 19.052C136.129 19.42 135.709 19.646 135.157 19.73L136.795 22.418C136.935 22.666 136.881 22.866 136.633 23.018ZM132.283 18.884H134.653C135.125 18.884 135.463 18.782 135.667 18.578C135.871 18.374 135.973 18.036 135.973 17.564V17.204C135.973 16.732 135.871 16.394 135.667 16.19C135.463 15.982 135.125 15.878 134.653 15.878H132.283V18.884ZM140.818 23C140.038 23 139.46 22.814 139.084 22.442C138.712 22.07 138.526 21.496 138.526 20.72V19.34C138.526 18.552 138.712 17.974 139.084 17.606C139.46 17.234 140.038 17.05 140.818 17.054H141.802C142.582 17.054 143.158 17.24 143.53 17.612C143.902 17.984 144.088 18.56 144.088 19.34V20.708C144.088 21.488 143.902 22.066 143.53 22.442C143.158 22.814 142.582 23 141.802 23H140.818ZM139.408 20.72C139.408 21.252 139.508 21.618 139.708 21.818C139.908 22.018 140.278 22.118 140.818 22.118H141.802C142.342 22.118 142.71 22.018 142.906 21.818C143.106 21.618 143.206 21.248 143.206 20.708V19.34C143.206 18.8 143.106 18.432 142.906 18.236C142.71 18.036 142.342 17.936 141.802 17.936H140.818C140.458 17.936 140.176 17.978 139.972 18.062C139.768 18.146 139.622 18.29 139.534 18.494C139.45 18.698 139.408 18.98 139.408 19.34V20.72ZM147.617 22.994C147.113 22.994 146.719 22.89 146.435 22.682C146.151 22.47 145.973 22.152 145.901 21.728C145.877 21.584 145.905 21.47 145.985 21.386C146.069 21.302 146.185 21.26 146.333 21.26C146.473 21.26 146.575 21.296 146.639 21.368C146.707 21.44 146.761 21.548 146.801 21.692C146.845 21.856 146.929 21.968 147.053 22.028C147.177 22.084 147.365 22.112 147.617 22.112H149.585C149.917 22.112 150.141 22.056 150.257 21.944C150.377 21.828 150.437 21.6 150.437 21.26C150.437 20.92 150.377 20.692 150.257 20.576C150.141 20.46 149.917 20.402 149.585 20.402H147.647C147.091 20.402 146.673 20.264 146.393 19.988C146.113 19.708 145.973 19.29 145.973 18.734C145.973 18.166 146.109 17.744 146.381 17.468C146.657 17.188 147.079 17.048 147.647 17.048H149.525C150.453 17.048 150.991 17.446 151.139 18.242C151.163 18.39 151.133 18.504 151.049 18.584C150.969 18.664 150.855 18.704 150.707 18.704C150.571 18.704 150.469 18.668 150.401 18.596C150.333 18.524 150.281 18.422 150.245 18.29C150.205 18.15 150.129 18.056 150.017 18.008C149.909 17.956 149.745 17.93 149.525 17.93H147.647C147.327 17.93 147.115 17.982 147.011 18.086C146.907 18.19 146.855 18.406 146.855 18.734C146.855 19.038 146.909 19.246 147.017 19.358C147.129 19.466 147.339 19.52 147.647 19.52H149.585C150.169 19.52 150.603 19.664 150.887 19.952C151.175 20.24 151.319 20.676 151.319 21.26C151.319 21.844 151.175 22.28 150.887 22.568C150.603 22.852 150.169 22.994 149.585 22.994H147.617ZM154.742 22.994C154.238 22.994 153.844 22.89 153.56 22.682C153.276 22.47 153.098 22.152 153.026 21.728C153.002 21.584 153.03 21.47 153.11 21.386C153.194 21.302 153.31 21.26 153.458 21.26C153.598 21.26 153.7 21.296 153.764 21.368C153.832 21.44 153.886 21.548 153.926 21.692C153.97 21.856 154.054 21.968 154.178 22.028C154.302 22.084 154.49 22.112 154.742 22.112H156.71C157.042 22.112 157.266 22.056 157.382 21.944C157.502 21.828 157.562 21.6 157.562 21.26C157.562 20.92 157.502 20.692 157.382 20.576C157.266 20.46 157.042 20.402 156.71 20.402H154.772C154.216 20.402 153.798 20.264 153.518 19.988C153.238 19.708 153.098 19.29 153.098 18.734C153.098 18.166 153.234 17.744 153.506 17.468C153.782 17.188 154.204 17.048 154.772 17.048H156.65C157.578 17.048 158.116 17.446 158.264 18.242C158.288 18.39 158.258 18.504 158.174 18.584C158.094 18.664 157.98 18.704 157.832 18.704C157.696 18.704 157.594 18.668 157.526 18.596C157.458 18.524 157.406 18.422 157.37 18.29C157.33 18.15 157.254 18.056 157.142 18.008C157.034 17.956 156.87 17.93 156.65 17.93H154.772C154.452 17.93 154.24 17.982 154.136 18.086C154.032 18.19 153.98 18.406 153.98 18.734C153.98 19.038 154.034 19.246 154.142 19.358C154.254 19.466 154.464 19.52 154.772 19.52H156.71C157.294 19.52 157.728 19.664 158.012 19.952C158.3 20.24 158.444 20.676 158.444 21.26C158.444 21.844 158.3 22.28 158.012 22.568C157.728 22.852 157.294 22.994 156.71 22.994H154.742ZM160.781 16.034C160.437 16.034 160.265 15.858 160.265 15.506V15.182C160.265 14.838 160.437 14.666 160.781 14.666H161.105C161.437 14.666 161.603 14.838 161.603 15.182V15.506C161.603 15.858 161.437 16.034 161.105 16.034H160.781ZM160.943 23C160.647 23 160.499 22.852 160.499 22.556V17.492C160.499 17.2 160.647 17.054 160.943 17.054C161.235 17.054 161.381 17.2 161.381 17.492V22.556C161.381 22.852 161.235 23 160.943 23Z" fill="black"/>
<rect width="71" height="236" fill="#D9D9D9"/>
<rect x="81" y="35" width="105" height="30" fill="#D9D9D9"/>
<rect x="10" y="35" width="51" height="30" fill="#B1B1B1"/>
<rect x="10" y="107" width="51" height="30" fill="#B1B1B1"/>
<rect x="10" y="71" width="51" height="30" fill="#B1B1B1"/>
<rect x="10" y="143" width="51" height="30" fill="#B1B1B1"/>
<rect x="10" y="179" width="51" height="30" fill="#B1B1B1"/>
<rect x="81" y="71" width="105" height="30" fill="#D9D9D9"/>
<rect x="81" y="107" width="105" height="30" fill="#D9D9D9"/>
<rect x="81" y="143" width="105" height="30" fill="#D9D9D9"/>
<rect x="81" y="179" width="105" height="30" fill="#D9D9D9"/>
</svg>
