<svg width="196" height="236" viewBox="0 0 196 236" fill="none" xmlns="http://www.w3.org/2000/svg">
<rect x="0.5" y="0.5" width="195" height="235" fill="white" stroke="#C1C1C1"/>
<rect width="196" height="56" fill="#D9D9D9"/>
<path d="M11.65 21C11.354 21 11.206 20.852 11.206 20.556V13.44C11.206 13.144 11.354 12.996 11.65 12.996C11.846 12.996 12.008 13.092 12.136 13.284L15.022 17.646L14.83 17.676L17.728 13.284C17.848 13.092 18.026 12.996 18.262 12.996C18.506 12.996 18.628 13.144 18.628 13.44V20.556C18.628 20.852 18.482 21 18.19 21C17.894 21 17.746 20.852 17.746 20.556V14.322L18.016 14.412L15.412 18.294C15.284 18.482 15.106 18.576 14.878 18.576C14.71 18.576 14.562 18.482 14.434 18.294L11.83 14.412L12.088 14.49V20.556C12.088 20.852 11.942 21 11.65 21ZM22.85 21C22.194 21 21.708 20.842 21.392 20.526C21.076 20.21 20.918 19.724 20.918 19.068C20.918 18.412 21.074 17.926 21.386 17.61C21.702 17.294 22.19 17.136 22.85 17.136H25.448C25.432 16.68 25.32 16.366 25.112 16.194C24.904 16.022 24.55 15.936 24.05 15.936H23.354C22.918 15.936 22.594 15.972 22.382 16.044C22.174 16.116 22.034 16.242 21.962 16.422C21.906 16.566 21.844 16.668 21.776 16.728C21.712 16.784 21.612 16.812 21.476 16.812C21.328 16.812 21.212 16.772 21.128 16.692C21.048 16.608 21.024 16.498 21.056 16.362C21.152 15.91 21.388 15.58 21.764 15.372C22.14 15.16 22.67 15.054 23.354 15.054H24.05C24.83 15.054 25.406 15.24 25.778 15.612C26.15 15.984 26.336 16.56 26.336 17.34V20.556C26.336 20.852 26.19 21 25.898 21C25.602 21 25.454 20.852 25.454 20.556V20.178C25.042 20.726 24.398 21 23.522 21H22.85ZM22.85 20.118H23.522C23.846 20.118 24.144 20.086 24.416 20.022C24.688 19.958 24.916 19.846 25.1 19.686C25.284 19.526 25.402 19.302 25.454 19.014V18.018H22.85C22.438 18.018 22.16 18.092 22.016 18.24C21.872 18.384 21.8 18.66 21.8 19.068C21.8 19.48 21.872 19.758 22.016 19.902C22.16 20.046 22.438 20.118 22.85 20.118ZM29.0758 21C28.7798 21 28.6318 20.852 28.6318 20.556V15.492C28.6318 15.2 28.7798 15.054 29.0758 15.054C29.3678 15.054 29.5138 15.2 29.5138 15.492V16.116C29.7418 15.768 30.0418 15.504 30.4138 15.324C30.7898 15.144 31.2258 15.054 31.7218 15.054C32.0178 15.054 32.1658 15.2 32.1658 15.492C32.1658 15.788 32.0178 15.936 31.7218 15.936C31.0218 15.936 30.4858 16.076 30.1138 16.356C29.7418 16.632 29.5418 17.01 29.5138 17.49V20.556C29.5138 20.852 29.3678 21 29.0758 21ZM35.3653 21C34.5853 21 34.0073 20.814 33.6313 20.442C33.2593 20.066 33.0733 19.488 33.0733 18.708V17.328C33.0733 16.548 33.2573 15.972 33.6253 15.6C33.9973 15.228 34.5773 15.046 35.3653 15.054H36.3493C36.9413 15.054 37.4033 15.154 37.7353 15.354C38.0673 15.554 38.2753 15.862 38.3593 16.278C38.3873 16.426 38.3593 16.54 38.2753 16.62C38.1953 16.7 38.0793 16.74 37.9273 16.74C37.7913 16.74 37.6913 16.706 37.6273 16.638C37.5633 16.566 37.5073 16.466 37.4593 16.338C37.4033 16.19 37.2893 16.086 37.1173 16.026C36.9493 15.966 36.6933 15.936 36.3493 15.936H35.3653C34.8293 15.928 34.4593 16.024 34.2553 16.224C34.0553 16.42 33.9553 16.788 33.9553 17.328V18.708C33.9553 19.248 34.0553 19.618 34.2553 19.818C34.4593 20.018 34.8293 20.118 35.3653 20.118H36.3493C36.6933 20.118 36.9493 20.088 37.1173 20.028C37.2893 19.968 37.4033 19.862 37.4593 19.71C37.5073 19.578 37.5633 19.478 37.6273 19.41C37.6913 19.342 37.7933 19.308 37.9333 19.308C38.0813 19.308 38.1953 19.35 38.2753 19.434C38.3593 19.514 38.3873 19.626 38.3593 19.77C38.2753 20.186 38.0673 20.496 37.7353 20.7C37.4033 20.9 36.9413 21 36.3493 21H35.3653ZM42.4551 21C41.6751 21 41.0971 20.814 40.7211 20.442C40.3491 20.07 40.1631 19.496 40.1631 18.72V17.34C40.1631 16.552 40.3491 15.974 40.7211 15.606C41.0971 15.234 41.6751 15.05 42.4551 15.054H43.4391C44.2191 15.054 44.7951 15.24 45.1671 15.612C45.5391 15.984 45.7251 16.56 45.7251 17.34V18.708C45.7251 19.488 45.5391 20.066 45.1671 20.442C44.7951 20.814 44.2191 21 43.4391 21H42.4551ZM41.0451 18.72C41.0451 19.252 41.1451 19.618 41.3451 19.818C41.5451 20.018 41.9151 20.118 42.4551 20.118H43.4391C43.9791 20.118 44.3471 20.018 44.5431 19.818C44.7431 19.618 44.8431 19.248 44.8431 18.708V17.34C44.8431 16.8 44.7431 16.432 44.5431 16.236C44.3471 16.036 43.9791 15.936 43.4391 15.936H42.4551C42.0951 15.936 41.8131 15.978 41.6091 16.062C41.4051 16.146 41.2591 16.29 41.1711 16.494C41.0871 16.698 41.0451 16.98 41.0451 17.34V18.72ZM56.6333 21.018C56.5173 21.094 56.4073 21.118 56.3033 21.09C56.1993 21.062 56.1093 20.99 56.0333 20.874L54.1373 17.766H52.2833V20.556C52.2833 20.852 52.1373 21 51.8453 21C51.5493 21 51.4013 20.852 51.4013 20.556V13.44C51.4013 13.144 51.5493 12.996 51.8453 12.996H54.6533C55.3693 12.996 55.9153 13.186 56.2913 13.566C56.6673 13.942 56.8553 14.488 56.8553 15.204V15.564C56.8553 16.188 56.7093 16.684 56.4173 17.052C56.1293 17.42 55.7093 17.646 55.1573 17.73L56.7953 20.418C56.9353 20.666 56.8813 20.866 56.6333 21.018ZM52.2833 16.884H54.6533C55.1253 16.884 55.4633 16.782 55.6673 16.578C55.8713 16.374 55.9733 16.036 55.9733 15.564V15.204C55.9733 14.732 55.8713 14.394 55.6673 14.19C55.4633 13.982 55.1253 13.878 54.6533 13.878H52.2833V16.884ZM60.8184 21C60.0384 21 59.4604 20.814 59.0844 20.442C58.7124 20.07 58.5264 19.496 58.5264 18.72V17.34C58.5264 16.552 58.7124 15.974 59.0844 15.606C59.4604 15.234 60.0384 15.05 60.8184 15.054H61.8024C62.5824 15.054 63.1584 15.24 63.5304 15.612C63.9024 15.984 64.0884 16.56 64.0884 17.34V18.708C64.0884 19.488 63.9024 20.066 63.5304 20.442C63.1584 20.814 62.5824 21 61.8024 21H60.8184ZM59.4084 18.72C59.4084 19.252 59.5084 19.618 59.7084 19.818C59.9084 20.018 60.2784 20.118 60.8184 20.118H61.8024C62.3424 20.118 62.7104 20.018 62.9064 19.818C63.1064 19.618 63.2064 19.248 63.2064 18.708V17.34C63.2064 16.8 63.1064 16.432 62.9064 16.236C62.7104 16.036 62.3424 15.936 61.8024 15.936H60.8184C60.4584 15.936 60.1764 15.978 59.9724 16.062C59.7684 16.146 59.6224 16.29 59.5344 16.494C59.4504 16.698 59.4084 16.98 59.4084 17.34V18.72ZM67.617 20.994C67.113 20.994 66.719 20.89 66.435 20.682C66.151 20.47 65.973 20.152 65.901 19.728C65.877 19.584 65.905 19.47 65.985 19.386C66.069 19.302 66.185 19.26 66.333 19.26C66.473 19.26 66.575 19.296 66.639 19.368C66.707 19.44 66.761 19.548 66.801 19.692C66.845 19.856 66.929 19.968 67.053 20.028C67.177 20.084 67.365 20.112 67.617 20.112H69.585C69.917 20.112 70.141 20.056 70.257 19.944C70.377 19.828 70.437 19.6 70.437 19.26C70.437 18.92 70.377 18.692 70.257 18.576C70.141 18.46 69.917 18.402 69.585 18.402H67.647C67.091 18.402 66.673 18.264 66.393 17.988C66.113 17.708 65.973 17.29 65.973 16.734C65.973 16.166 66.109 15.744 66.381 15.468C66.657 15.188 67.079 15.048 67.647 15.048H69.525C70.453 15.048 70.991 15.446 71.139 16.242C71.163 16.39 71.133 16.504 71.049 16.584C70.969 16.664 70.855 16.704 70.707 16.704C70.571 16.704 70.469 16.668 70.401 16.596C70.333 16.524 70.281 16.422 70.245 16.29C70.205 16.15 70.129 16.056 70.017 16.008C69.909 15.956 69.745 15.93 69.525 15.93H67.647C67.327 15.93 67.115 15.982 67.011 16.086C66.907 16.19 66.855 16.406 66.855 16.734C66.855 17.038 66.909 17.246 67.017 17.358C67.129 17.466 67.339 17.52 67.647 17.52H69.585C70.169 17.52 70.603 17.664 70.887 17.952C71.175 18.24 71.319 18.676 71.319 19.26C71.319 19.844 71.175 20.28 70.887 20.568C70.603 20.852 70.169 20.994 69.585 20.994H67.617ZM74.742 20.994C74.238 20.994 73.844 20.89 73.56 20.682C73.276 20.47 73.098 20.152 73.026 19.728C73.002 19.584 73.03 19.47 73.11 19.386C73.194 19.302 73.31 19.26 73.458 19.26C73.598 19.26 73.7 19.296 73.764 19.368C73.832 19.44 73.886 19.548 73.926 19.692C73.97 19.856 74.054 19.968 74.178 20.028C74.302 20.084 74.49 20.112 74.742 20.112H76.71C77.042 20.112 77.266 20.056 77.382 19.944C77.502 19.828 77.562 19.6 77.562 19.26C77.562 18.92 77.502 18.692 77.382 18.576C77.266 18.46 77.042 18.402 76.71 18.402H74.772C74.216 18.402 73.798 18.264 73.518 17.988C73.238 17.708 73.098 17.29 73.098 16.734C73.098 16.166 73.234 15.744 73.506 15.468C73.782 15.188 74.204 15.048 74.772 15.048H76.65C77.578 15.048 78.116 15.446 78.264 16.242C78.288 16.39 78.258 16.504 78.174 16.584C78.094 16.664 77.98 16.704 77.832 16.704C77.696 16.704 77.594 16.668 77.526 16.596C77.458 16.524 77.406 16.422 77.37 16.29C77.33 16.15 77.254 16.056 77.142 16.008C77.034 15.956 76.87 15.93 76.65 15.93H74.772C74.452 15.93 74.24 15.982 74.136 16.086C74.032 16.19 73.98 16.406 73.98 16.734C73.98 17.038 74.034 17.246 74.142 17.358C74.254 17.466 74.464 17.52 74.772 17.52H76.71C77.294 17.52 77.728 17.664 78.012 17.952C78.3 18.24 78.444 18.676 78.444 19.26C78.444 19.844 78.3 20.28 78.012 20.568C77.728 20.852 77.294 20.994 76.71 20.994H74.742ZM80.781 14.034C80.437 14.034 80.265 13.858 80.265 13.506V13.182C80.265 12.838 80.437 12.666 80.781 12.666H81.105C81.437 12.666 81.603 12.838 81.603 13.182V13.506C81.603 13.858 81.437 14.034 81.105 14.034H80.781ZM80.943 21C80.647 21 80.499 20.852 80.499 20.556V15.492C80.499 15.2 80.647 15.054 80.943 15.054C81.235 15.054 81.381 15.2 81.381 15.492V20.556C81.381 20.852 81.235 21 80.943 21Z" fill="black"/>
<rect x="10" y="65" width="176" height="50" fill="#D9D9D9"/>
<rect x="92" y="10" width="94" height="30" fill="#B1B1B1"/>
<rect x="10" y="122" width="176" height="30" fill="#D9D9D9"/>
<rect x="10" y="158" width="176" height="30" fill="#D9D9D9"/>
<rect x="10" y="194" width="176" height="30" fill="#D9D9D9"/>
</svg>
