<svg width="48" height="16" viewBox="0 0 48 16" fill="none" xmlns="http://www.w3.org/2000/svg">
<path d="M1.51172 7C0.959434 7 0.511719 7.44772 0.511719 8C0.511719 8.55228 0.959434 9 1.51172 9L1.51172 7ZM47.5677 8.70711C47.9582 8.31659 47.9582 7.68342 47.5677 7.2929L41.2037 0.928936C40.8132 0.538412 40.18 0.538412 39.7895 0.928936C39.399 1.31946 39.399 1.95263 39.7895 2.34315L45.4463 8L39.7895 13.6569C39.399 14.0474 39.399 14.6805 39.7895 15.0711C40.18 15.4616 40.8132 15.4616 41.2037 15.0711L47.5677 8.70711ZM1.51172 9L46.8605 9L46.8606 7L1.51172 7L1.51172 9Z" fill="#1F1D20"/>
</svg>
