<svg width="30" height="44" viewBox="0 0 30 44" fill="none" xmlns="http://www.w3.org/2000/svg">
<path d="M13 2C13 0.895431 13.8954 4.82823e-08 15 0C16.1046 -4.82823e-08 17 0.89543 17 2L13 2ZM16.4142 43.4142C15.6332 44.1953 14.3668 44.1953 13.5858 43.4142L0.857866 30.6863C0.0768168 29.9052 0.0768168 28.6389 0.857866 27.8579C1.63891 27.0768 2.90524 27.0768 3.68629 27.8579L15 39.1716L26.3137 27.8579C27.0948 27.0768 28.3611 27.0768 29.1421 27.8579C29.9232 28.6389 29.9232 29.9052 29.1421 30.6863L16.4142 43.4142ZM17 2L17 42L13 42L13 2L17 2Z" fill="#1F1D20"/>
</svg>
