<svg width="1060" height="166" viewBox="0 0 1060 166" fill="none" xmlns="http://www.w3.org/2000/svg">
<path d="M587.997 7.74133e-05C586.341 7.75891e-05 584.997 1.34322 584.997 3.00008C584.997 4.65693 586.341 6.00008 587.997 6.00008L587.997 7.74133e-05ZM1027.5 3L1027.5 4.86387e-06L1027.5 3ZM1056.5 31.9999L1059.5 31.9999L1056.5 31.9999ZM1056.5 47.9999L1053.5 48L1056.5 47.9999ZM1027.5 77L1027.5 74L1027.5 77ZM52 77L52 80L52 77ZM20.8787 165.121C22.0503 166.293 23.9497 166.293 25.1213 165.121L44.2132 146.029C45.3848 144.858 45.3848 142.958 44.2132 141.787C43.0416 140.615 41.1421 140.615 39.9706 141.787L23 158.757L6.02941 141.787C4.8579 140.615 2.95837 140.615 1.78674 141.787C0.615227 142.958 0.615227 144.858 1.78674 146.029L20.8787 165.121ZM587.997 6.00008L1027.5 6L1027.5 4.86387e-06L587.997 7.74133e-05L587.997 6.00008ZM1053.5 32L1053.5 48L1059.5 47.9999L1059.5 31.9999L1053.5 32ZM1027.5 74L52 74L52 80L1027.5 80L1027.5 74ZM20 106L20 163L26 163L26 106L20 106ZM52 74C34.3269 74 20 88.3269 20 106L26 106C26 91.6406 37.6406 80 52 80L52 74ZM1053.5 48C1053.5 62.3594 1041.86 74 1027.5 74L1027.5 80C1045.17 80 1059.5 65.6731 1059.5 47.9999L1053.5 48ZM1027.5 6C1041.86 6 1053.5 17.6406 1053.5 32L1059.5 31.9999C1059.5 14.3269 1045.17 1.95587e-06 1027.5 4.86387e-06L1027.5 6Z" fill="#1F1D20"/>
</svg>
