<svg width="59" height="59" viewBox="0 0 59 59" fill="none" xmlns="http://www.w3.org/2000/svg">
<path fill-rule="evenodd" clip-rule="evenodd" d="M22.9047 7.76365C22.853 7.42736 22.8262 7.08287 22.8262 6.73212C22.8262 3.01407 25.8402 0 29.5583 0C33.1908 0 36.1514 2.87703 36.2857 6.47674H36.3334C36.3334 11.8028 33.4359 21.901 29.3915 21.901C25.6671 21.901 23.262 13.0851 22.9047 7.76365Z" fill="#1F1D20"/>
<path fill-rule="evenodd" clip-rule="evenodd" d="M40.2132 9.45328C40.4122 9.18323 40.6339 8.92468 40.8783 8.68025C43.5074 6.05119 47.7699 6.05119 50.399 8.68025C52.9677 11.249 53.0267 15.3771 50.5758 18.0174L50.6087 18.0503C46.8426 21.8164 37.6533 26.9081 34.7934 24.0482C32.1574 21.4122 36.7017 13.4651 40.2132 9.45328Z" fill="#1F1D20"/>
<path fill-rule="evenodd" clip-rule="evenodd" d="M51.2393 22.902C51.5741 22.8508 51.9169 22.8242 52.2659 22.8242C55.984 22.8242 58.998 25.8383 58.998 29.5563C58.998 33.1886 56.1214 36.149 52.5221 36.2837V36.3309C47.196 36.3309 37.0979 33.4335 37.0979 29.389C37.0979 25.6637 45.9183 23.2583 51.2393 22.902Z" fill="#1F1D20"/>
<path fill-rule="evenodd" clip-rule="evenodd" d="M49.5459 40.2126C49.8163 40.4118 50.0751 40.6337 50.3198 40.8783C52.9488 43.5074 52.9488 47.7699 50.3198 50.399C47.7513 52.9674 43.6238 53.0267 40.9835 50.5766L40.9506 50.6095C37.1845 46.8435 32.0928 37.6542 34.9527 34.7943C37.5884 32.1586 45.5335 36.7013 49.5459 40.2126Z" fill="#1F1D20"/>
<path fill-rule="evenodd" clip-rule="evenodd" d="M36.0974 51.2375C36.149 51.5734 36.1758 51.9175 36.1758 52.2679C36.1758 55.9859 33.1617 59 29.4437 59C25.8111 59 22.8505 56.123 22.7163 52.5232H22.6687C22.6687 47.1972 25.5661 37.099 29.6106 37.099C33.3352 37.099 35.7404 45.9161 36.0974 51.2375Z" fill="#1F1D20"/>
<path fill-rule="evenodd" clip-rule="evenodd" d="M18.7868 49.5467C18.5878 49.8168 18.3661 50.0753 18.1217 50.3198C15.4926 52.9488 11.2301 52.9488 8.601 50.3198C6.03226 47.751 5.97333 43.6229 8.42423 40.9826L8.39135 40.9497C12.1574 37.1836 21.3467 32.0919 24.2066 34.9518C26.8426 37.5878 22.2983 45.5349 18.7868 49.5467Z" fill="#1F1D20"/>
<path fill-rule="evenodd" clip-rule="evenodd" d="M7.75896 36.098C7.42416 36.1492 7.08124 36.1758 6.73212 36.1758C3.01407 36.1758 0 33.1617 0 29.4437C0 25.8113 2.87671 22.8509 6.47614 22.7163V22.669C11.8022 22.669 21.9004 25.5665 21.9004 29.6109C21.9004 33.3362 13.08 35.7416 7.75896 36.098Z" fill="#1F1D20"/>
<path fill-rule="evenodd" clip-rule="evenodd" d="M9.45408 18.7874C9.18374 18.5882 8.92492 18.3663 8.68025 18.1217C6.05119 15.4926 6.05119 11.2301 8.68025 8.601C11.2487 6.03256 15.3762 5.97335 18.0165 8.42336L18.0494 8.39045C21.8155 12.1565 26.9072 21.3458 24.0473 24.2057C21.4116 26.8414 13.4665 22.2987 9.45408 18.7874Z" fill="#1F1D20"/>
<circle cx="29.5557" cy="29.3995" r="7.49906" fill="#FF832A"/>
</svg>
