<svg width="428" height="110" viewBox="0 0 428 110" fill="none" xmlns="http://www.w3.org/2000/svg">
<path d="M21.1 92C17.0333 92 13.8667 90.9333 11.6 88.8C9.33333 86.6 8.2 83.6 8.2 79.8V25C8.2 23.7333 8.53333 22.7667 9.2 22.1C9.86667 21.3667 10.7667 21 11.9 21C13.1 21 14.0333 21.3667 14.7 22.1C15.3667 22.7667 15.7 23.7333 15.7 25V80C15.7 81.7333 16.1667 83.1333 17.1 84.2C18.1 85.2667 19.4 85.8 21 85.8H54.3C56.9 85.8 58.2 86.8333 58.2 88.9C58.2 89.9 57.8667 90.6667 57.2 91.2C56.5333 91.7333 55.5667 92 54.3 92H21.1ZM71.6953 93C70.562 93 69.662 92.6667 68.9953 92C68.3286 91.2667 67.9953 90.2667 67.9953 89V49.9C67.9953 40.8333 70.5286 33.7667 75.5953 28.7C80.7286 23.5667 87.8286 21 96.8953 21C105.895 21 112.962 23.5667 118.095 28.7C123.229 33.8333 125.795 40.9 125.795 49.9V89C125.795 90.2667 125.462 91.2667 124.795 92C124.129 92.6667 123.195 93 121.995 93C120.862 93 119.929 92.6667 119.195 92C118.529 91.2667 118.195 90.2667 118.195 89V66.5H75.4953V89C75.4953 90.2667 75.162 91.2667 74.4953 92C73.8286 92.6667 72.8953 93 71.6953 93ZM118.195 60.3V49.6C118.195 42.4667 116.362 37 112.695 33.2C109.029 29.3333 103.762 27.4 96.8953 27.4C89.962 27.4 84.662 29.3 80.9953 33.1C77.3286 36.9 75.4953 42.4 75.4953 49.6V60.3H118.195ZM151.949 92C147.883 92 144.716 90.9333 142.449 88.8C140.183 86.6 139.049 83.6 139.049 79.8V34C139.049 30.2667 140.149 27.3333 142.349 25.2C144.616 23.0667 147.749 22 151.749 22H175.449C182.183 22 187.416 23.6667 191.149 27C194.883 30.3333 196.749 35.0333 196.749 41.1C196.749 44.5667 195.849 47.6 194.049 50.2C192.249 52.7333 189.783 54.6667 186.649 56V56.2C190.183 57.4667 192.949 59.4667 194.949 62.2C196.949 64.8667 197.949 68.0333 197.949 71.7C197.949 77.9667 196.049 82.9333 192.249 86.6C188.449 90.2 183.249 92 176.649 92H151.949ZM176.249 53.2C180.183 53.2 183.316 52.1 185.649 49.9C187.983 47.7 189.149 44.7667 189.149 41.1C189.149 36.9 187.983 33.7 185.649 31.5C183.316 29.3 179.916 28.2 175.449 28.2H151.849C150.316 28.2 149.049 28.7667 148.049 29.9C147.049 30.9667 146.549 32.3333 146.549 34V53.2H176.249ZM176.249 85.7C180.849 85.7 184.349 84.5333 186.749 82.2C189.149 79.8 190.349 76.3333 190.349 71.8C190.349 67.8667 189.083 64.8 186.549 62.6C184.016 60.4 180.549 59.3 176.149 59.3H146.549V80C146.549 81.6667 147.049 83.0333 148.049 84.1C149.049 85.1667 150.316 85.7 151.849 85.7H176.249ZM239.673 93C232.94 93 226.873 91.5333 221.473 88.6C216.073 85.6 211.807 81.3667 208.673 75.9C205.607 70.4333 204.073 64.1333 204.073 57C204.073 49.8 205.607 43.5 208.673 38.1C211.807 32.6333 216.073 28.4333 221.473 25.5C226.873 22.5 232.94 21 239.673 21C246.407 21 252.473 22.5 257.873 25.5C263.273 28.4333 267.507 32.6333 270.573 38.1C273.707 43.5 275.273 49.8 275.273 57C275.273 64.1333 273.707 70.4333 270.573 75.9C267.507 81.3667 263.273 85.6 257.873 88.6C252.473 91.5333 246.407 93 239.673 93ZM239.673 86.6C245.073 86.6 249.873 85.4333 254.073 83.1C258.34 80.7667 261.673 77.4 264.073 73C266.54 68.5333 267.773 63.2 267.773 57C267.773 50.7333 266.507 45.3667 263.973 40.9C261.507 36.4333 258.107 33.0667 253.773 30.8C249.507 28.5333 244.74 27.4 239.473 27.4C234.14 27.4 229.34 28.5667 225.073 30.9C220.873 33.2333 217.573 36.6333 215.173 41.1C212.773 45.5667 211.573 50.8667 211.573 57C211.573 63.2 212.773 68.5333 215.173 73C217.64 77.4 220.973 80.7667 225.173 83.1C229.44 85.4333 234.273 86.6 239.673 86.6ZM286.105 34.5C286.105 30.7 287.205 27.6667 289.405 25.4C291.671 23.1333 294.938 22 299.205 22H317.905C336.038 22 345.105 29.5333 345.105 44.6C345.105 51.8667 342.905 57.3667 338.505 61.1C334.105 64.8333 327.471 66.7 318.605 66.7L338.005 86.8C338.605 87.4 338.905 88.1667 338.905 89.1C338.905 90.3 338.405 91.2667 337.405 92C336.605 92.6 335.771 92.9 334.905 92.9C333.571 92.9 332.305 92.2333 331.105 90.9L308.105 66.7H294.605V88.7C294.605 90.0333 294.205 91.1 293.405 91.9C292.671 92.6333 291.638 93 290.305 93C288.971 93 287.938 92.6333 287.205 91.9C286.471 91.1 286.105 90.0333 286.105 88.7V34.5ZM318.405 59.8C324.538 59.8 329.071 58.6667 332.005 56.4C335.005 54.0667 336.505 50.1333 336.505 44.6C336.505 39 335.005 35 332.005 32.6C329.005 30.1333 324.471 28.9 318.405 28.9H299.705C298.171 28.9 296.938 29.4 296.005 30.4C295.071 31.4 294.605 32.7667 294.605 34.5V59.8H318.405ZM386.445 93C379.712 93 373.645 91.5333 368.245 88.6C362.845 85.6 358.579 81.3667 355.445 75.9C352.379 70.4333 350.845 64.1333 350.845 57C350.845 49.8 352.379 43.5 355.445 38.1C358.579 32.6333 362.845 28.4333 368.245 25.5C373.645 22.5 379.712 21 386.445 21C393.179 21 399.245 22.5 404.645 25.5C410.045 28.4333 414.279 32.6333 417.345 38.1C420.479 43.5 422.045 49.8 422.045 57C422.045 64.1333 420.479 70.4333 417.345 75.9C414.279 81.3667 410.045 85.6 404.645 88.6C399.245 91.5333 393.179 93 386.445 93ZM386.445 86.6C391.845 86.6 396.645 85.4333 400.845 83.1C405.112 80.7667 408.445 77.4 410.845 73C413.312 68.5333 414.545 63.2 414.545 57C414.545 50.7333 413.279 45.3667 410.745 40.9C408.279 36.4333 404.879 33.0667 400.545 30.8C396.279 28.5333 391.512 27.4 386.245 27.4C380.912 27.4 376.112 28.5667 371.845 30.9C367.645 33.2333 364.345 36.6333 361.945 41.1C359.545 45.5667 358.345 50.8667 358.345 57C358.345 63.2 359.545 68.5333 361.945 73C364.412 77.4 367.745 80.7667 371.945 83.1C376.212 85.4333 381.045 86.6 386.445 86.6Z" fill="#8783D1"/>
<path d="M257 69C257 69 251.75 77.5 239.75 77.5C227.75 77.5 223 69 223 69" stroke="#EE3449" stroke-width="5" stroke-linecap="round"/>
</svg>
