<svg width="798" height="137" viewBox="0 0 798 137" fill="none" xmlns="http://www.w3.org/2000/svg">
<path d="M199 0C197.343 0 196 1.34315 196 3C196 4.65685 197.343 6 199 6V0ZM148.621 116.621C149.793 115.45 149.793 113.55 148.621 112.379L129.529 93.2868C128.358 92.1152 126.458 92.1152 125.287 93.2868C124.115 94.4584 124.115 96.3579 125.287 97.5294L142.257 114.5L125.287 131.471C124.115 132.642 124.115 134.542 125.287 135.713C126.458 136.885 128.358 136.885 129.529 135.713L148.621 116.621ZM199 6H783V0H199V6ZM792 15V45.5H798V15H792ZM15.5 117.5H146.5V111.5H15.5V117.5ZM783 54.5H15.5V60.5H783V54.5ZM0.5 69.5V102.5H6.5V69.5H0.5ZM15.5 54.5C7.21574 54.5 0.5 61.2157 0.5 69.5H6.5C6.5 64.5294 10.5294 60.5 15.5 60.5V54.5ZM15.5 111.5C10.5294 111.5 6.5 107.471 6.5 102.5H0.5C0.5 110.784 7.21573 117.5 15.5 117.5V111.5ZM783 6C787.971 6 792 10.0294 792 15H798C798 6.71573 791.284 0 783 0V6ZM792 45.5C792 50.4706 787.971 54.5 783 54.5V60.5C791.284 60.5 798 53.7843 798 45.5H792Z" fill="white"/>
</svg>
