<svg width="798" height="163" viewBox="0 0 798 163" fill="none" xmlns="http://www.w3.org/2000/svg">
<path d="M174.632 151V131.4H182.696C184.432 131.4 185.916 131.68 187.148 132.24C188.399 132.8 189.36 133.603 190.032 134.648C190.704 135.693 191.04 136.935 191.04 138.372C191.04 139.809 190.704 141.051 190.032 142.096C189.36 143.123 188.399 143.916 187.148 144.476C185.916 145.017 184.432 145.288 182.696 145.288H176.648L178.272 143.636V151H174.632ZM187.456 151L182.5 143.888H186.392L191.376 151H187.456ZM178.272 144.028L176.648 142.292H182.528C184.133 142.292 185.337 141.947 186.14 141.256C186.961 140.565 187.372 139.604 187.372 138.372C187.372 137.121 186.961 136.16 186.14 135.488C185.337 134.816 184.133 134.48 182.528 134.48H176.648L178.272 132.688V144.028ZM201.804 151.196C200.143 151.196 198.687 150.869 197.436 150.216C196.204 149.544 195.243 148.629 194.552 147.472C193.88 146.315 193.544 144.999 193.544 143.524C193.544 142.031 193.871 140.715 194.524 139.576C195.196 138.419 196.111 137.513 197.268 136.86C198.444 136.207 199.779 135.88 201.272 135.88C202.728 135.88 204.026 136.197 205.164 136.832C206.303 137.467 207.199 138.363 207.852 139.52C208.506 140.677 208.832 142.04 208.832 143.608C208.832 143.757 208.823 143.925 208.804 144.112C208.804 144.299 208.795 144.476 208.776 144.644H196.316V142.32H206.928L205.556 143.048C205.575 142.189 205.398 141.433 205.024 140.78C204.651 140.127 204.138 139.613 203.484 139.24C202.85 138.867 202.112 138.68 201.272 138.68C200.414 138.68 199.658 138.867 199.004 139.24C198.37 139.613 197.866 140.136 197.492 140.808C197.138 141.461 196.96 142.236 196.96 143.132V143.692C196.96 144.588 197.166 145.381 197.576 146.072C197.987 146.763 198.566 147.295 199.312 147.668C200.059 148.041 200.918 148.228 201.888 148.228C202.728 148.228 203.484 148.097 204.156 147.836C204.828 147.575 205.426 147.164 205.948 146.604L207.824 148.76C207.152 149.544 206.303 150.151 205.276 150.58C204.268 150.991 203.111 151.196 201.804 151.196ZM215.897 151L209.485 136.048H213.125L218.641 149.236H216.849L222.561 136.048H225.921L219.509 151H215.897ZM234.418 151.196C232.888 151.196 231.525 150.869 230.33 150.216C229.136 149.544 228.193 148.629 227.502 147.472C226.812 146.315 226.466 144.999 226.466 143.524C226.466 142.031 226.812 140.715 227.502 139.576C228.193 138.419 229.136 137.513 230.33 136.86C231.525 136.207 232.888 135.88 234.418 135.88C235.968 135.88 237.34 136.207 238.534 136.86C239.748 137.513 240.69 138.409 241.362 139.548C242.053 140.687 242.398 142.012 242.398 143.524C242.398 144.999 242.053 146.315 241.362 147.472C240.69 148.629 239.748 149.544 238.534 150.216C237.34 150.869 235.968 151.196 234.418 151.196ZM234.418 148.2C235.277 148.2 236.042 148.013 236.714 147.64C237.386 147.267 237.909 146.725 238.282 146.016C238.674 145.307 238.87 144.476 238.87 143.524C238.87 142.553 238.674 141.723 238.282 141.032C237.909 140.323 237.386 139.781 236.714 139.408C236.042 139.035 235.286 138.848 234.446 138.848C233.588 138.848 232.822 139.035 232.15 139.408C231.497 139.781 230.974 140.323 230.582 141.032C230.19 141.723 229.994 142.553 229.994 143.524C229.994 144.476 230.19 145.307 230.582 146.016C230.974 146.725 231.497 147.267 232.15 147.64C232.822 148.013 233.578 148.2 234.418 148.2ZM245.745 151V130.224H249.245V151H245.745ZM260.167 151.196C258.898 151.196 257.778 150.963 256.807 150.496C255.836 150.011 255.08 149.283 254.539 148.312C253.998 147.323 253.727 146.081 253.727 144.588V136.048H257.227V144.112C257.227 145.456 257.526 146.464 258.123 147.136C258.739 147.789 259.607 148.116 260.727 148.116C261.548 148.116 262.258 147.948 262.855 147.612C263.471 147.276 263.947 146.772 264.283 146.1C264.638 145.428 264.815 144.597 264.815 143.608V136.048H268.315V151H264.983V146.968L265.571 148.2C265.067 149.171 264.33 149.917 263.359 150.44C262.388 150.944 261.324 151.196 260.167 151.196ZM278.526 151.196C276.883 151.196 275.614 150.776 274.718 149.936C273.822 149.077 273.374 147.817 273.374 146.156V132.744H276.874V146.072C276.874 146.781 277.051 147.332 277.406 147.724C277.779 148.116 278.292 148.312 278.946 148.312C279.73 148.312 280.383 148.107 280.906 147.696L281.886 150.188C281.475 150.524 280.971 150.776 280.374 150.944C279.776 151.112 279.16 151.196 278.526 151.196ZM270.91 138.96V136.16H280.878V138.96H270.91ZM284.765 151V136.048H288.265V151H284.765ZM286.529 133.584C285.875 133.584 285.334 133.379 284.905 132.968C284.494 132.557 284.289 132.063 284.289 131.484C284.289 130.887 284.494 130.392 284.905 130C285.334 129.589 285.875 129.384 286.529 129.384C287.182 129.384 287.714 129.58 288.125 129.972C288.554 130.345 288.769 130.821 288.769 131.4C288.769 132.016 288.563 132.539 288.153 132.968C287.742 133.379 287.201 133.584 286.529 133.584ZM299.579 151.196C298.048 151.196 296.685 150.869 295.491 150.216C294.296 149.544 293.353 148.629 292.663 147.472C291.972 146.315 291.627 144.999 291.627 143.524C291.627 142.031 291.972 140.715 292.663 139.576C293.353 138.419 294.296 137.513 295.491 136.86C296.685 136.207 298.048 135.88 299.579 135.88C301.128 135.88 302.5 136.207 303.695 136.86C304.908 137.513 305.851 138.409 306.523 139.548C307.213 140.687 307.559 142.012 307.559 143.524C307.559 144.999 307.213 146.315 306.523 147.472C305.851 148.629 304.908 149.544 303.695 150.216C302.5 150.869 301.128 151.196 299.579 151.196ZM299.579 148.2C300.437 148.2 301.203 148.013 301.875 147.64C302.547 147.267 303.069 146.725 303.443 146.016C303.835 145.307 304.031 144.476 304.031 143.524C304.031 142.553 303.835 141.723 303.443 141.032C303.069 140.323 302.547 139.781 301.875 139.408C301.203 139.035 300.447 138.848 299.607 138.848C298.748 138.848 297.983 139.035 297.311 139.408C296.657 139.781 296.135 140.323 295.743 141.032C295.351 141.723 295.155 142.553 295.155 143.524C295.155 144.476 295.351 145.307 295.743 146.016C296.135 146.725 296.657 147.267 297.311 147.64C297.983 148.013 298.739 148.2 299.579 148.2ZM319.389 135.88C320.584 135.88 321.648 136.113 322.581 136.58C323.533 137.047 324.28 137.765 324.821 138.736C325.363 139.688 325.633 140.92 325.633 142.432V151H322.133V142.88C322.133 141.555 321.816 140.565 321.181 139.912C320.565 139.259 319.697 138.932 318.577 138.932C317.756 138.932 317.028 139.1 316.393 139.436C315.759 139.772 315.264 140.276 314.909 140.948C314.573 141.601 314.405 142.432 314.405 143.44V151H310.905V136.048H314.237V140.08L313.649 138.848C314.172 137.896 314.928 137.168 315.917 136.664C316.925 136.141 318.083 135.88 319.389 135.88ZM330.073 151V136.048H333.573V151H330.073ZM331.837 133.584C331.184 133.584 330.643 133.379 330.213 132.968C329.803 132.557 329.597 132.063 329.597 131.484C329.597 130.887 329.803 130.392 330.213 130C330.643 129.589 331.184 129.384 331.837 129.384C332.491 129.384 333.023 129.58 333.433 129.972C333.863 130.345 334.077 130.821 334.077 131.4C334.077 132.016 333.872 132.539 333.461 132.968C333.051 133.379 332.509 133.584 331.837 133.584ZM336.935 151V148.788L346.147 137.644L346.791 138.848H337.103V136.048H349.591V138.26L340.379 149.404L339.679 148.2H349.843V151H336.935ZM353.069 151V136.048H356.569V151H353.069ZM354.833 133.584C354.18 133.584 353.639 133.379 353.209 132.968C352.799 132.557 352.593 132.063 352.593 131.484C352.593 130.887 352.799 130.392 353.209 130C353.639 129.589 354.18 129.384 354.833 129.384C355.487 129.384 356.019 129.58 356.429 129.972C356.859 130.345 357.073 130.821 357.073 131.4C357.073 132.016 356.868 132.539 356.457 132.968C356.047 133.379 355.505 133.584 354.833 133.584ZM369.647 135.88C370.842 135.88 371.906 136.113 372.839 136.58C373.791 137.047 374.538 137.765 375.079 138.736C375.621 139.688 375.891 140.92 375.891 142.432V151H372.391V142.88C372.391 141.555 372.074 140.565 371.439 139.912C370.823 139.259 369.955 138.932 368.835 138.932C368.014 138.932 367.286 139.1 366.651 139.436C366.017 139.772 365.522 140.276 365.167 140.948C364.831 141.601 364.663 142.432 364.663 143.44V151H361.163V136.048H364.495V140.08L363.907 138.848C364.43 137.896 365.186 137.168 366.175 136.664C367.183 136.141 368.341 135.88 369.647 135.88ZM387.135 156.628C385.753 156.628 384.4 156.441 383.075 156.068C381.768 155.713 380.695 155.191 379.855 154.5L381.423 151.868C382.076 152.409 382.897 152.839 383.887 153.156C384.895 153.492 385.912 153.66 386.939 153.66C388.581 153.66 389.785 153.277 390.551 152.512C391.316 151.765 391.699 150.636 391.699 149.124V146.464L391.979 143.076L391.867 139.688V136.048H395.199V148.732C395.199 151.439 394.508 153.427 393.127 154.696C391.745 155.984 389.748 156.628 387.135 156.628ZM386.687 150.328C385.268 150.328 383.98 150.029 382.823 149.432C381.684 148.816 380.779 147.967 380.107 146.884C379.453 145.801 379.127 144.532 379.127 143.076C379.127 141.639 379.453 140.379 380.107 139.296C380.779 138.213 381.684 137.373 382.823 136.776C383.98 136.179 385.268 135.88 386.687 135.88C387.956 135.88 389.095 136.132 390.103 136.636C391.111 137.14 391.913 137.924 392.511 138.988C393.127 140.052 393.435 141.415 393.435 143.076C393.435 144.737 393.127 146.109 392.511 147.192C391.913 148.256 391.111 149.049 390.103 149.572C389.095 150.076 387.956 150.328 386.687 150.328ZM387.219 147.36C388.096 147.36 388.88 147.183 389.571 146.828C390.261 146.455 390.793 145.951 391.167 145.316C391.559 144.663 391.755 143.916 391.755 143.076C391.755 142.236 391.559 141.499 391.167 140.864C390.793 140.211 390.261 139.716 389.571 139.38C388.88 139.025 388.096 138.848 387.219 138.848C386.341 138.848 385.548 139.025 384.839 139.38C384.148 139.716 383.607 140.211 383.215 140.864C382.841 141.499 382.655 142.236 382.655 143.076C382.655 143.916 382.841 144.663 383.215 145.316C383.607 145.951 384.148 146.455 384.839 146.828C385.548 147.183 386.341 147.36 387.219 147.36ZM413.166 151.196C411.524 151.196 410.254 150.776 409.358 149.936C408.462 149.077 408.014 147.817 408.014 146.156V132.744H411.514V146.072C411.514 146.781 411.692 147.332 412.046 147.724C412.42 148.116 412.933 148.312 413.586 148.312C414.37 148.312 415.024 148.107 415.546 147.696L416.526 150.188C416.116 150.524 415.612 150.776 415.014 150.944C414.417 151.112 413.801 151.196 413.166 151.196ZM405.55 138.96V136.16H415.518V138.96H405.55ZM427.889 135.88C429.084 135.88 430.148 136.113 431.081 136.58C432.033 137.047 432.78 137.765 433.321 138.736C433.863 139.688 434.133 140.92 434.133 142.432V151H430.633V142.88C430.633 141.555 430.316 140.565 429.681 139.912C429.065 139.259 428.197 138.932 427.077 138.932C426.256 138.932 425.528 139.1 424.893 139.436C424.259 139.772 423.764 140.276 423.409 140.948C423.073 141.601 422.905 142.432 422.905 143.44V151H419.405V130.224H422.905V140.08L422.149 138.848C422.672 137.896 423.428 137.168 424.417 136.664C425.425 136.141 426.583 135.88 427.889 135.88ZM445.629 151.196C443.967 151.196 442.511 150.869 441.261 150.216C440.029 149.544 439.067 148.629 438.377 147.472C437.705 146.315 437.369 144.999 437.369 143.524C437.369 142.031 437.695 140.715 438.349 139.576C439.021 138.419 439.935 137.513 441.093 136.86C442.269 136.207 443.603 135.88 445.097 135.88C446.553 135.88 447.85 136.197 448.989 136.832C450.127 137.467 451.023 138.363 451.677 139.52C452.33 140.677 452.657 142.04 452.657 143.608C452.657 143.757 452.647 143.925 452.629 144.112C452.629 144.299 452.619 144.476 452.601 144.644H440.141V142.32H450.753L449.381 143.048C449.399 142.189 449.222 141.433 448.849 140.78C448.475 140.127 447.962 139.613 447.309 139.24C446.674 138.867 445.937 138.68 445.097 138.68C444.238 138.68 443.482 138.867 442.829 139.24C442.194 139.613 441.69 140.136 441.317 140.808C440.962 141.461 440.785 142.236 440.785 143.132V143.692C440.785 144.588 440.99 145.381 441.401 146.072C441.811 146.763 442.39 147.295 443.137 147.668C443.883 148.041 444.742 148.228 445.713 148.228C446.553 148.228 447.309 148.097 447.981 147.836C448.653 147.575 449.25 147.164 449.773 146.604L451.649 148.76C450.977 149.544 450.127 150.151 449.101 150.58C448.093 150.991 446.935 151.196 445.629 151.196ZM462.217 156.628C461.564 156.628 460.948 156.553 460.369 156.404C459.772 156.273 459.268 156.059 458.857 155.76L459.865 153.156C460.406 153.548 461.088 153.744 461.909 153.744C462.544 153.744 463.038 153.539 463.393 153.128C463.748 152.736 463.925 152.148 463.925 151.364V136.048H467.425V151.28C467.425 152.923 466.968 154.22 466.053 155.172C465.157 156.143 463.878 156.628 462.217 156.628ZM465.661 133.584C465.008 133.584 464.466 133.379 464.037 132.968C463.626 132.557 463.421 132.063 463.421 131.484C463.421 130.887 463.626 130.392 464.037 130C464.466 129.589 465.008 129.384 465.661 129.384C466.314 129.384 466.846 129.58 467.257 129.972C467.686 130.345 467.901 130.821 467.901 131.4C467.901 132.016 467.696 132.539 467.285 132.968C466.874 133.379 466.333 133.584 465.661 133.584ZM478.735 151.196C477.204 151.196 475.841 150.869 474.647 150.216C473.452 149.544 472.509 148.629 471.819 147.472C471.128 146.315 470.783 144.999 470.783 143.524C470.783 142.031 471.128 140.715 471.819 139.576C472.509 138.419 473.452 137.513 474.647 136.86C475.841 136.207 477.204 135.88 478.735 135.88C480.284 135.88 481.656 136.207 482.851 136.86C484.064 137.513 485.007 138.409 485.679 139.548C486.369 140.687 486.715 142.012 486.715 143.524C486.715 144.999 486.369 146.315 485.679 147.472C485.007 148.629 484.064 149.544 482.851 150.216C481.656 150.869 480.284 151.196 478.735 151.196ZM478.735 148.2C479.593 148.2 480.359 148.013 481.031 147.64C481.703 147.267 482.225 146.725 482.599 146.016C482.991 145.307 483.187 144.476 483.187 143.524C483.187 142.553 482.991 141.723 482.599 141.032C482.225 140.323 481.703 139.781 481.031 139.408C480.359 139.035 479.603 138.848 478.763 138.848C477.904 138.848 477.139 139.035 476.467 139.408C475.813 139.781 475.291 140.323 474.899 141.032C474.507 141.723 474.311 142.553 474.311 143.524C474.311 144.476 474.507 145.307 474.899 146.016C475.291 146.725 475.813 147.267 476.467 147.64C477.139 148.013 477.895 148.2 478.735 148.2ZM498.35 151.196C497.08 151.196 495.951 150.916 494.962 150.356C493.972 149.796 493.188 148.956 492.61 147.836C492.05 146.697 491.77 145.26 491.77 143.524C491.77 141.769 492.059 140.332 492.638 139.212C493.235 138.092 494.028 137.261 495.018 136.72C496.026 136.16 497.136 135.88 498.35 135.88C499.824 135.88 501.122 136.197 502.242 136.832C503.38 137.467 504.276 138.353 504.93 139.492C505.602 140.631 505.938 141.975 505.938 143.524C505.938 145.073 505.602 146.417 504.93 147.556C504.276 148.695 503.38 149.591 502.242 150.244C501.122 150.879 499.824 151.196 498.35 151.196ZM490.062 151V130.224H493.562V139.52L493.282 143.496L493.394 147.472V151H490.062ZM497.958 148.2C498.798 148.2 499.544 148.013 500.198 147.64C500.87 147.267 501.402 146.725 501.794 146.016C502.186 145.307 502.382 144.476 502.382 143.524C502.382 142.553 502.186 141.723 501.794 141.032C501.402 140.323 500.87 139.781 500.198 139.408C499.544 139.035 498.798 138.848 497.958 138.848C497.118 138.848 496.362 139.035 495.69 139.408C495.018 139.781 494.486 140.323 494.094 141.032C493.702 141.723 493.506 142.553 493.506 143.524C493.506 144.476 493.702 145.307 494.094 146.016C494.486 146.725 495.018 147.267 495.69 147.64C496.362 148.013 497.118 148.2 497.958 148.2ZM526.207 151V147.976L526.011 147.332V142.04C526.011 141.013 525.703 140.22 525.087 139.66C524.471 139.081 523.538 138.792 522.287 138.792C521.447 138.792 520.617 138.923 519.795 139.184C518.993 139.445 518.311 139.809 517.751 140.276L516.379 137.728C517.182 137.112 518.134 136.655 519.235 136.356C520.355 136.039 521.513 135.88 522.707 135.88C524.873 135.88 526.543 136.403 527.719 137.448C528.914 138.475 529.511 140.071 529.511 142.236V151H526.207ZM521.503 151.196C520.383 151.196 519.403 151.009 518.563 150.636C517.723 150.244 517.07 149.712 516.603 149.04C516.155 148.349 515.931 147.575 515.931 146.716C515.931 145.876 516.127 145.12 516.519 144.448C516.93 143.776 517.593 143.244 518.507 142.852C519.422 142.46 520.635 142.264 522.147 142.264H526.487V144.588H522.399C521.205 144.588 520.402 144.784 519.991 145.176C519.581 145.549 519.375 146.016 519.375 146.576C519.375 147.211 519.627 147.715 520.131 148.088C520.635 148.461 521.335 148.648 522.231 148.648C523.09 148.648 523.855 148.452 524.527 148.06C525.218 147.668 525.713 147.089 526.011 146.324L526.599 148.424C526.263 149.301 525.657 149.983 524.779 150.468C523.921 150.953 522.829 151.196 521.503 151.196ZM542.291 151.196C541.078 151.196 539.967 150.916 538.959 150.356C537.97 149.796 537.176 148.956 536.579 147.836C536 146.697 535.711 145.26 535.711 143.524C535.711 141.769 535.991 140.332 536.551 139.212C537.13 138.092 537.914 137.261 538.903 136.72C539.892 136.16 541.022 135.88 542.291 135.88C543.766 135.88 545.063 136.197 546.183 136.832C547.322 137.467 548.218 138.353 548.871 139.492C549.543 140.631 549.879 141.975 549.879 143.524C549.879 145.073 549.543 146.427 548.871 147.584C548.218 148.723 547.322 149.609 546.183 150.244C545.063 150.879 543.766 151.196 542.291 151.196ZM534.003 156.432V136.048H537.335V139.576L537.223 143.552L537.503 147.528V156.432H534.003ZM541.899 148.2C542.739 148.2 543.486 148.013 544.139 147.64C544.811 147.267 545.343 146.725 545.735 146.016C546.127 145.307 546.323 144.476 546.323 143.524C546.323 142.553 546.127 141.723 545.735 141.032C545.343 140.323 544.811 139.781 544.139 139.408C543.486 139.035 542.739 138.848 541.899 138.848C541.059 138.848 540.303 139.035 539.631 139.408C538.959 139.781 538.427 140.323 538.035 141.032C537.643 141.723 537.447 142.553 537.447 143.524C537.447 144.476 537.643 145.307 538.035 146.016C538.427 146.725 538.959 147.267 539.631 147.64C540.303 148.013 541.059 148.2 541.899 148.2ZM561.486 151.196C560.273 151.196 559.162 150.916 558.154 150.356C557.165 149.796 556.372 148.956 555.774 147.836C555.196 146.697 554.906 145.26 554.906 143.524C554.906 141.769 555.186 140.332 555.746 139.212C556.325 138.092 557.109 137.261 558.098 136.72C559.088 136.16 560.217 135.88 561.486 135.88C562.961 135.88 564.258 136.197 565.378 136.832C566.517 137.467 567.413 138.353 568.066 139.492C568.738 140.631 569.074 141.975 569.074 143.524C569.074 145.073 568.738 146.427 568.066 147.584C567.413 148.723 566.517 149.609 565.378 150.244C564.258 150.879 562.961 151.196 561.486 151.196ZM553.198 156.432V136.048H556.53V139.576L556.418 143.552L556.698 147.528V156.432H553.198ZM561.094 148.2C561.934 148.2 562.681 148.013 563.334 147.64C564.006 147.267 564.538 146.725 564.93 146.016C565.322 145.307 565.518 144.476 565.518 143.524C565.518 142.553 565.322 141.723 564.93 141.032C564.538 140.323 564.006 139.781 563.334 139.408C562.681 139.035 561.934 138.848 561.094 138.848C560.254 138.848 559.498 139.035 558.826 139.408C558.154 139.781 557.622 140.323 557.23 141.032C556.838 141.723 556.642 142.553 556.642 143.524C556.642 144.476 556.838 145.307 557.23 146.016C557.622 146.725 558.154 147.267 558.826 147.64C559.498 148.013 560.254 148.2 561.094 148.2ZM572.394 151V130.224H575.894V151H572.394ZM580.487 151V136.048H583.987V151H580.487ZM582.251 133.584C581.598 133.584 581.057 133.379 580.627 132.968C580.217 132.557 580.011 132.063 580.011 131.484C580.011 130.887 580.217 130.392 580.627 130C581.057 129.589 581.598 129.384 582.251 129.384C582.905 129.384 583.437 129.58 583.847 129.972C584.277 130.345 584.491 130.821 584.491 131.4C584.491 132.016 584.286 132.539 583.875 132.968C583.465 133.379 582.923 133.584 582.251 133.584ZM595.441 151.196C593.873 151.196 592.473 150.869 591.241 150.216C590.028 149.544 589.076 148.629 588.385 147.472C587.694 146.315 587.349 144.999 587.349 143.524C587.349 142.031 587.694 140.715 588.385 139.576C589.076 138.419 590.028 137.513 591.241 136.86C592.473 136.207 593.873 135.88 595.441 135.88C596.897 135.88 598.176 136.179 599.277 136.776C600.397 137.355 601.246 138.213 601.825 139.352L599.137 140.92C598.689 140.211 598.138 139.688 597.485 139.352C596.85 139.016 596.16 138.848 595.413 138.848C594.554 138.848 593.78 139.035 593.089 139.408C592.398 139.781 591.857 140.323 591.465 141.032C591.073 141.723 590.877 142.553 590.877 143.524C590.877 144.495 591.073 145.335 591.465 146.044C591.857 146.735 592.398 147.267 593.089 147.64C593.78 148.013 594.554 148.2 595.413 148.2C596.16 148.2 596.85 148.032 597.485 147.696C598.138 147.36 598.689 146.837 599.137 146.128L601.825 147.696C601.246 148.816 600.397 149.684 599.277 150.3C598.176 150.897 596.897 151.196 595.441 151.196ZM614.063 151V147.976L613.867 147.332V142.04C613.867 141.013 613.559 140.22 612.943 139.66C612.327 139.081 611.393 138.792 610.143 138.792C609.303 138.792 608.472 138.923 607.651 139.184C606.848 139.445 606.167 139.809 605.607 140.276L604.235 137.728C605.037 137.112 605.989 136.655 607.091 136.356C608.211 136.039 609.368 135.88 610.563 135.88C612.728 135.88 614.399 136.403 615.575 137.448C616.769 138.475 617.367 140.071 617.367 142.236V151H614.063ZM609.359 151.196C608.239 151.196 607.259 151.009 606.419 150.636C605.579 150.244 604.925 149.712 604.459 149.04C604.011 148.349 603.787 147.575 603.787 146.716C603.787 145.876 603.983 145.12 604.375 144.448C604.785 143.776 605.448 143.244 606.363 142.852C607.277 142.46 608.491 142.264 610.003 142.264H614.343V144.588H610.255C609.06 144.588 608.257 144.784 607.847 145.176C607.436 145.549 607.231 146.016 607.231 146.576C607.231 147.211 607.483 147.715 607.987 148.088C608.491 148.461 609.191 148.648 610.087 148.648C610.945 148.648 611.711 148.452 612.383 148.06C613.073 147.668 613.568 147.089 613.867 146.324L614.455 148.424C614.119 149.301 613.512 149.983 612.635 150.468C611.776 150.953 610.684 151.196 609.359 151.196ZM627.487 151.196C625.844 151.196 624.575 150.776 623.678 149.936C622.783 149.077 622.335 147.817 622.335 146.156V132.744H625.835V146.072C625.835 146.781 626.012 147.332 626.367 147.724C626.74 148.116 627.253 148.312 627.907 148.312C628.691 148.312 629.344 148.107 629.867 147.696L630.847 150.188C630.436 150.524 629.932 150.776 629.335 150.944C628.737 151.112 628.121 151.196 627.487 151.196ZM619.871 138.96V136.16H629.839V138.96H619.871ZM633.726 151V136.048H637.226V151H633.726ZM635.49 133.584C634.836 133.584 634.295 133.379 633.866 132.968C633.455 132.557 633.25 132.063 633.25 131.484C633.25 130.887 633.455 130.392 633.866 130C634.295 129.589 634.836 129.384 635.49 129.384C636.143 129.384 636.675 129.58 637.086 129.972C637.515 130.345 637.73 130.821 637.73 131.4C637.73 132.016 637.524 132.539 637.114 132.968C636.703 133.379 636.162 133.584 635.49 133.584ZM648.539 151.196C647.009 151.196 645.646 150.869 644.451 150.216C643.257 149.544 642.314 148.629 641.623 147.472C640.933 146.315 640.587 144.999 640.587 143.524C640.587 142.031 640.933 140.715 641.623 139.576C642.314 138.419 643.257 137.513 644.451 136.86C645.646 136.207 647.009 135.88 648.539 135.88C650.089 135.88 651.461 136.207 652.655 136.86C653.869 137.513 654.811 138.409 655.483 139.548C656.174 140.687 656.519 142.012 656.519 143.524C656.519 144.999 656.174 146.315 655.483 147.472C654.811 148.629 653.869 149.544 652.655 150.216C651.461 150.869 650.089 151.196 648.539 151.196ZM648.539 148.2C649.398 148.2 650.163 148.013 650.835 147.64C651.507 147.267 652.03 146.725 652.403 146.016C652.795 145.307 652.991 144.476 652.991 143.524C652.991 142.553 652.795 141.723 652.403 141.032C652.03 140.323 651.507 139.781 650.835 139.408C650.163 139.035 649.407 138.848 648.567 138.848C647.709 138.848 646.943 139.035 646.271 139.408C645.618 139.781 645.095 140.323 644.703 141.032C644.311 141.723 644.115 142.553 644.115 143.524C644.115 144.476 644.311 145.307 644.703 146.016C645.095 146.725 645.618 147.267 646.271 147.64C646.943 148.013 647.699 148.2 648.539 148.2ZM668.35 135.88C669.545 135.88 670.609 136.113 671.542 136.58C672.494 137.047 673.241 137.765 673.782 138.736C674.324 139.688 674.594 140.92 674.594 142.432V151H671.094V142.88C671.094 141.555 670.777 140.565 670.142 139.912C669.526 139.259 668.658 138.932 667.538 138.932C666.717 138.932 665.989 139.1 665.354 139.436C664.72 139.772 664.225 140.276 663.87 140.948C663.534 141.601 663.366 142.432 663.366 143.44V151H659.866V136.048H663.198V140.08L662.61 138.848C663.133 137.896 663.889 137.168 664.878 136.664C665.886 136.141 667.044 135.88 668.35 135.88ZM695.061 151.196C693.847 151.196 692.737 150.916 691.729 150.356C690.739 149.796 689.946 148.956 689.349 147.836C688.77 146.697 688.481 145.26 688.481 143.524C688.481 141.769 688.761 140.332 689.321 139.212C689.899 138.092 690.683 137.261 691.673 136.72C692.662 136.16 693.791 135.88 695.061 135.88C696.535 135.88 697.833 136.197 698.953 136.832C700.091 137.467 700.987 138.353 701.641 139.492C702.313 140.631 702.649 141.975 702.649 143.524C702.649 145.073 702.313 146.427 701.641 147.584C700.987 148.723 700.091 149.609 698.953 150.244C697.833 150.879 696.535 151.196 695.061 151.196ZM686.773 156.432V136.048H690.105V139.576L689.993 143.552L690.273 147.528V156.432H686.773ZM694.669 148.2C695.509 148.2 696.255 148.013 696.909 147.64C697.581 147.267 698.113 146.725 698.505 146.016C698.897 145.307 699.093 144.476 699.093 143.524C699.093 142.553 698.897 141.723 698.505 141.032C698.113 140.323 697.581 139.781 696.909 139.408C696.255 139.035 695.509 138.848 694.669 138.848C693.829 138.848 693.073 139.035 692.401 139.408C691.729 139.781 691.197 140.323 690.805 141.032C690.413 141.723 690.217 142.553 690.217 143.524C690.217 144.476 690.413 145.307 690.805 146.016C691.197 146.725 691.729 147.267 692.401 147.64C693.073 148.013 693.829 148.2 694.669 148.2ZM705.968 151V136.048H709.3V140.164L708.908 138.96C709.356 137.952 710.056 137.187 711.008 136.664C711.979 136.141 713.183 135.88 714.62 135.88V139.212C714.471 139.175 714.331 139.156 714.2 139.156C714.069 139.137 713.939 139.128 713.808 139.128C712.483 139.128 711.428 139.52 710.644 140.304C709.86 141.069 709.468 142.217 709.468 143.748V151H705.968ZM724.172 151.196C722.642 151.196 721.279 150.869 720.084 150.216C718.89 149.544 717.947 148.629 717.256 147.472C716.566 146.315 716.22 144.999 716.22 143.524C716.22 142.031 716.566 140.715 717.256 139.576C717.947 138.419 718.89 137.513 720.084 136.86C721.279 136.207 722.642 135.88 724.172 135.88C725.722 135.88 727.094 136.207 728.288 136.86C729.502 137.513 730.444 138.409 731.116 139.548C731.807 140.687 732.152 142.012 732.152 143.524C732.152 144.999 731.807 146.315 731.116 147.472C730.444 148.629 729.502 149.544 728.288 150.216C727.094 150.869 725.722 151.196 724.172 151.196ZM724.172 148.2C725.031 148.2 725.796 148.013 726.468 147.64C727.14 147.267 727.663 146.725 728.036 146.016C728.428 145.307 728.624 144.476 728.624 143.524C728.624 142.553 728.428 141.723 728.036 141.032C727.663 140.323 727.14 139.781 726.468 139.408C725.796 139.035 725.04 138.848 724.2 138.848C723.342 138.848 722.576 139.035 721.904 139.408C721.251 139.781 720.728 140.323 720.336 141.032C719.944 141.723 719.748 142.553 719.748 143.524C719.748 144.476 719.944 145.307 720.336 146.016C720.728 146.725 721.251 147.267 721.904 147.64C722.576 148.013 723.332 148.2 724.172 148.2ZM742.359 151.196C740.791 151.196 739.391 150.869 738.159 150.216C736.946 149.544 735.994 148.629 735.303 147.472C734.612 146.315 734.267 144.999 734.267 143.524C734.267 142.031 734.612 140.715 735.303 139.576C735.994 138.419 736.946 137.513 738.159 136.86C739.391 136.207 740.791 135.88 742.359 135.88C743.815 135.88 745.094 136.179 746.195 136.776C747.315 137.355 748.164 138.213 748.743 139.352L746.055 140.92C745.607 140.211 745.056 139.688 744.403 139.352C743.768 139.016 743.078 138.848 742.331 138.848C741.472 138.848 740.698 139.035 740.007 139.408C739.316 139.781 738.775 140.323 738.383 141.032C737.991 141.723 737.795 142.553 737.795 143.524C737.795 144.495 737.991 145.335 738.383 146.044C738.775 146.735 739.316 147.267 740.007 147.64C740.698 148.013 741.472 148.2 742.331 148.2C743.078 148.2 743.768 148.032 744.403 147.696C745.056 147.36 745.607 146.837 746.055 146.128L748.743 147.696C748.164 148.816 747.315 149.684 746.195 150.3C745.094 150.897 743.815 151.196 742.359 151.196ZM758.578 151.196C756.917 151.196 755.461 150.869 754.21 150.216C752.978 149.544 752.017 148.629 751.326 147.472C750.654 146.315 750.318 144.999 750.318 143.524C750.318 142.031 750.645 140.715 751.298 139.576C751.97 138.419 752.885 137.513 754.042 136.86C755.218 136.207 756.553 135.88 758.046 135.88C759.502 135.88 760.799 136.197 761.938 136.832C763.077 137.467 763.973 138.363 764.626 139.52C765.279 140.677 765.606 142.04 765.606 143.608C765.606 143.757 765.597 143.925 765.578 144.112C765.578 144.299 765.569 144.476 765.55 144.644H753.09V142.32H763.702L762.33 143.048C762.349 142.189 762.171 141.433 761.798 140.78C761.425 140.127 760.911 139.613 760.258 139.24C759.623 138.867 758.886 138.68 758.046 138.68C757.187 138.68 756.431 138.867 755.778 139.24C755.143 139.613 754.639 140.136 754.266 140.808C753.911 141.461 753.734 142.236 753.734 143.132V143.692C753.734 144.588 753.939 145.381 754.35 146.072C754.761 146.763 755.339 147.295 756.086 147.668C756.833 148.041 757.691 148.228 758.662 148.228C759.502 148.228 760.258 148.097 760.93 147.836C761.602 147.575 762.199 147.164 762.722 146.604L764.598 148.76C763.926 149.544 763.077 150.151 762.05 150.58C761.042 150.991 759.885 151.196 758.578 151.196ZM773.588 151.196C772.337 151.196 771.133 151.037 769.976 150.72C768.837 150.384 767.932 149.983 767.26 149.516L768.604 146.856C769.276 147.285 770.079 147.64 771.012 147.92C771.945 148.2 772.879 148.34 773.812 148.34C774.913 148.34 775.707 148.191 776.192 147.892C776.696 147.593 776.948 147.192 776.948 146.688C776.948 146.277 776.78 145.969 776.444 145.764C776.108 145.54 775.669 145.372 775.128 145.26C774.587 145.148 773.98 145.045 773.308 144.952C772.655 144.859 771.992 144.737 771.32 144.588C770.667 144.42 770.069 144.187 769.528 143.888C768.987 143.571 768.548 143.151 768.212 142.628C767.876 142.105 767.708 141.415 767.708 140.556C767.708 139.604 767.979 138.783 768.52 138.092C769.061 137.383 769.817 136.841 770.788 136.468C771.777 136.076 772.944 135.88 774.288 135.88C775.296 135.88 776.313 135.992 777.34 136.216C778.367 136.44 779.216 136.757 779.888 137.168L778.544 139.828C777.835 139.399 777.116 139.109 776.388 138.96C775.679 138.792 774.969 138.708 774.26 138.708C773.196 138.708 772.403 138.867 771.88 139.184C771.376 139.501 771.124 139.903 771.124 140.388C771.124 140.836 771.292 141.172 771.628 141.396C771.964 141.62 772.403 141.797 772.944 141.928C773.485 142.059 774.083 142.171 774.736 142.264C775.408 142.339 776.071 142.46 776.724 142.628C777.377 142.796 777.975 143.029 778.516 143.328C779.076 143.608 779.524 144.009 779.86 144.532C780.196 145.055 780.364 145.736 780.364 146.576C780.364 147.509 780.084 148.321 779.524 149.012C778.983 149.703 778.208 150.244 777.2 150.636C776.192 151.009 774.988 151.196 773.588 151.196ZM787.998 151.196C786.747 151.196 785.543 151.037 784.386 150.72C783.247 150.384 782.342 149.983 781.67 149.516L783.014 146.856C783.686 147.285 784.489 147.64 785.422 147.92C786.355 148.2 787.289 148.34 788.222 148.34C789.323 148.34 790.117 148.191 790.602 147.892C791.106 147.593 791.358 147.192 791.358 146.688C791.358 146.277 791.19 145.969 790.854 145.764C790.518 145.54 790.079 145.372 789.538 145.26C788.997 145.148 788.39 145.045 787.718 144.952C787.065 144.859 786.402 144.737 785.73 144.588C785.077 144.42 784.479 144.187 783.938 143.888C783.397 143.571 782.958 143.151 782.622 142.628C782.286 142.105 782.118 141.415 782.118 140.556C782.118 139.604 782.389 138.783 782.93 138.092C783.471 137.383 784.227 136.841 785.198 136.468C786.187 136.076 787.354 135.88 788.698 135.88C789.706 135.88 790.723 135.992 791.75 136.216C792.777 136.44 793.626 136.757 794.298 137.168L792.954 139.828C792.245 139.399 791.526 139.109 790.798 138.96C790.089 138.792 789.379 138.708 788.67 138.708C787.606 138.708 786.813 138.867 786.29 139.184C785.786 139.501 785.534 139.903 785.534 140.388C785.534 140.836 785.702 141.172 786.038 141.396C786.374 141.62 786.813 141.797 787.354 141.928C787.895 142.059 788.493 142.171 789.146 142.264C789.818 142.339 790.481 142.46 791.134 142.628C791.787 142.796 792.385 143.029 792.926 143.328C793.486 143.608 793.934 144.009 794.27 144.532C794.606 145.055 794.774 145.736 794.774 146.576C794.774 147.509 794.494 148.321 793.934 149.012C793.393 149.703 792.618 150.244 791.61 150.636C790.602 151.009 789.398 151.196 787.998 151.196Z" fill="#B9FF5E"/>
<path d="M12.816 26.28C11.2853 26.28 9.876 26.028 8.588 25.524C7.3 25.02 6.18 24.32 5.228 23.424C4.276 22.5093 3.53867 21.4453 3.016 20.232C2.49333 19 2.232 17.656 2.232 16.2C2.232 14.744 2.49333 13.4093 3.016 12.196C3.53867 10.964 4.276 9.9 5.228 9.004C6.18 8.08933 7.3 7.38 8.588 6.876C9.876 6.372 11.276 6.12 12.788 6.12C14.3187 6.12 15.7187 6.372 16.988 6.876C18.276 7.38 19.396 8.08933 20.348 9.004C21.3 9.9 22.0373 10.964 22.56 12.196C23.0827 13.4093 23.344 14.744 23.344 16.2C23.344 17.656 23.0827 19 22.56 20.232C22.0373 21.464 21.3 22.528 20.348 23.424C19.396 24.32 18.276 25.02 16.988 25.524C15.7187 26.028 14.328 26.28 12.816 26.28ZM12.788 23.088C13.7773 23.088 14.692 22.92 15.532 22.584C16.372 22.248 17.1 21.772 17.716 21.156C18.332 20.5213 18.808 19.7933 19.144 18.972C19.4987 18.132 19.676 17.208 19.676 16.2C19.676 15.192 19.4987 14.2773 19.144 13.456C18.808 12.616 18.332 11.888 17.716 11.272C17.1 10.6373 16.372 10.152 15.532 9.816C14.692 9.48 13.7773 9.312 12.788 9.312C11.7987 9.312 10.884 9.48 10.044 9.816C9.22267 10.152 8.49467 10.6373 7.86 11.272C7.244 11.888 6.75867 12.616 6.404 13.456C6.068 14.2773 5.9 15.192 5.9 16.2C5.9 17.1893 6.068 18.104 6.404 18.944C6.75867 19.784 7.244 20.5213 7.86 21.156C8.476 21.772 9.204 22.248 10.044 22.584C10.884 22.92 11.7987 23.088 12.788 23.088ZM33.1943 26.196C31.925 26.196 30.805 25.9627 29.8343 25.496C28.8636 25.0107 28.1076 24.2827 27.5663 23.312C27.025 22.3227 26.7543 21.0813 26.7543 19.588V11.048H30.2543V19.112C30.2543 20.456 30.553 21.464 31.1503 22.136C31.7663 22.7893 32.6343 23.116 33.7543 23.116C34.5756 23.116 35.285 22.948 35.8823 22.612C36.4983 22.276 36.9743 21.772 37.3103 21.1C37.665 20.428 37.8423 19.5973 37.8423 18.608V11.048H41.3423V26H38.0103V21.968L38.5983 23.2C38.0943 24.1707 37.357 24.9173 36.3863 25.44C35.4156 25.944 34.3516 26.196 33.1943 26.196ZM45.9249 26V11.048H49.2569V15.164L48.8649 13.96C49.3129 12.952 50.0129 12.1867 50.9649 11.664C51.9356 11.1413 53.1396 10.88 54.5769 10.88V14.212C54.4276 14.1747 54.2876 14.156 54.1569 14.156C54.0262 14.1373 53.8956 14.128 53.7649 14.128C52.4396 14.128 51.3849 14.52 50.6009 15.304C49.8169 16.0693 49.4249 17.2173 49.4249 18.748V26H45.9249ZM65.757 26V6.4H68.753L77.321 20.708H75.753L84.181 6.4H87.177L87.205 26H83.761L83.733 11.804H84.461L77.293 23.76H75.669L68.389 11.804H69.229V26H65.757ZM92.1632 26V11.048H95.6632V26H92.1632ZM93.9272 8.584C93.2739 8.584 92.7325 8.37867 92.3032 7.968C91.8925 7.55733 91.6872 7.06267 91.6872 6.484C91.6872 5.88667 91.8925 5.392 92.3032 5C92.7325 4.58933 93.2739 4.384 93.9272 4.384C94.5805 4.384 95.1125 4.58 95.5232 4.972C95.9525 5.34533 96.1672 5.82133 96.1672 6.4C96.1672 7.016 95.9619 7.53867 95.5512 7.968C95.1405 8.37867 94.5992 8.584 93.9272 8.584ZM104.877 26.196C103.626 26.196 102.422 26.0373 101.265 25.72C100.126 25.384 99.2209 24.9827 98.5489 24.516L99.8929 21.856C100.565 22.2853 101.368 22.64 102.301 22.92C103.234 23.2 104.168 23.34 105.101 23.34C106.202 23.34 106.996 23.1907 107.481 22.892C107.985 22.5933 108.237 22.192 108.237 21.688C108.237 21.2773 108.069 20.9693 107.733 20.764C107.397 20.54 106.958 20.372 106.417 20.26C105.876 20.148 105.269 20.0453 104.597 19.952C103.944 19.8587 103.281 19.7373 102.609 19.588C101.956 19.42 101.358 19.1867 100.817 18.888C100.276 18.5707 99.8369 18.1507 99.5009 17.628C99.1649 17.1053 98.9969 16.4147 98.9969 15.556C98.9969 14.604 99.2676 13.7827 99.8089 13.092C100.35 12.3827 101.106 11.8413 102.077 11.468C103.066 11.076 104.233 10.88 105.577 10.88C106.585 10.88 107.602 10.992 108.629 11.216C109.656 11.44 110.505 11.7573 111.177 12.168L109.833 14.828C109.124 14.3987 108.405 14.1093 107.677 13.96C106.968 13.792 106.258 13.708 105.549 13.708C104.485 13.708 103.692 13.8667 103.169 14.184C102.665 14.5013 102.413 14.9027 102.413 15.388C102.413 15.836 102.581 16.172 102.917 16.396C103.253 16.62 103.692 16.7973 104.233 16.928C104.774 17.0587 105.372 17.1707 106.025 17.264C106.697 17.3387 107.36 17.46 108.013 17.628C108.666 17.796 109.264 18.0293 109.805 18.328C110.365 18.608 110.813 19.0093 111.149 19.532C111.485 20.0547 111.653 20.736 111.653 21.576C111.653 22.5093 111.373 23.3213 110.813 24.012C110.272 24.7027 109.497 25.244 108.489 25.636C107.481 26.0093 106.277 26.196 104.877 26.196ZM119.287 26.196C118.036 26.196 116.832 26.0373 115.675 25.72C114.536 25.384 113.631 24.9827 112.959 24.516L114.303 21.856C114.975 22.2853 115.778 22.64 116.711 22.92C117.644 23.2 118.578 23.34 119.511 23.34C120.612 23.34 121.406 23.1907 121.891 22.892C122.395 22.5933 122.647 22.192 122.647 21.688C122.647 21.2773 122.479 20.9693 122.143 20.764C121.807 20.54 121.368 20.372 120.827 20.26C120.286 20.148 119.679 20.0453 119.007 19.952C118.354 19.8587 117.691 19.7373 117.019 19.588C116.366 19.42 115.768 19.1867 115.227 18.888C114.686 18.5707 114.247 18.1507 113.911 17.628C113.575 17.1053 113.407 16.4147 113.407 15.556C113.407 14.604 113.678 13.7827 114.219 13.092C114.76 12.3827 115.516 11.8413 116.487 11.468C117.476 11.076 118.643 10.88 119.987 10.88C120.995 10.88 122.012 10.992 123.039 11.216C124.066 11.44 124.915 11.7573 125.587 12.168L124.243 14.828C123.534 14.3987 122.815 14.1093 122.087 13.96C121.378 13.792 120.668 13.708 119.959 13.708C118.895 13.708 118.102 13.8667 117.579 14.184C117.075 14.5013 116.823 14.9027 116.823 15.388C116.823 15.836 116.991 16.172 117.327 16.396C117.663 16.62 118.102 16.7973 118.643 16.928C119.184 17.0587 119.782 17.1707 120.435 17.264C121.107 17.3387 121.77 17.46 122.423 17.628C123.076 17.796 123.674 18.0293 124.215 18.328C124.775 18.608 125.223 19.0093 125.559 19.532C125.895 20.0547 126.063 20.736 126.063 21.576C126.063 22.5093 125.783 23.3213 125.223 24.012C124.682 24.7027 123.907 25.244 122.899 25.636C121.891 26.0093 120.687 26.196 119.287 26.196ZM129.077 26V11.048H132.577V26H129.077ZM130.841 8.584C130.188 8.584 129.647 8.37867 129.217 7.968C128.807 7.55733 128.601 7.06267 128.601 6.484C128.601 5.88667 128.807 5.392 129.217 5C129.647 4.58933 130.188 4.384 130.841 4.384C131.495 4.384 132.027 4.58 132.437 4.972C132.867 5.34533 133.081 5.82133 133.081 6.4C133.081 7.016 132.876 7.53867 132.465 7.968C132.055 8.37867 131.513 8.584 130.841 8.584ZM143.891 26.196C142.36 26.196 140.998 25.8693 139.803 25.216C138.608 24.544 137.666 23.6293 136.975 22.472C136.284 21.3147 135.939 19.9987 135.939 18.524C135.939 17.0307 136.284 15.7147 136.975 14.576C137.666 13.4187 138.608 12.5133 139.803 11.86C140.998 11.2067 142.36 10.88 143.891 10.88C145.44 10.88 146.812 11.2067 148.007 11.86C149.22 12.5133 150.163 13.4093 150.835 14.548C151.526 15.6867 151.871 17.012 151.871 18.524C151.871 19.9987 151.526 21.3147 150.835 22.472C150.163 23.6293 149.22 24.544 148.007 25.216C146.812 25.8693 145.44 26.196 143.891 26.196ZM143.891 23.2C144.75 23.2 145.515 23.0133 146.187 22.64C146.859 22.2667 147.382 21.7253 147.755 21.016C148.147 20.3067 148.343 19.476 148.343 18.524C148.343 17.5533 148.147 16.7227 147.755 16.032C147.382 15.3227 146.859 14.7813 146.187 14.408C145.515 14.0347 144.759 13.848 143.919 13.848C143.06 13.848 142.295 14.0347 141.623 14.408C140.97 14.7813 140.447 15.3227 140.055 16.032C139.663 16.7227 139.467 17.5533 139.467 18.524C139.467 19.476 139.663 20.3067 140.055 21.016C140.447 21.7253 140.97 22.2667 141.623 22.64C142.295 23.0133 143.051 23.2 143.891 23.2ZM163.702 10.88C164.897 10.88 165.961 11.1133 166.894 11.58C167.846 12.0467 168.593 12.7653 169.134 13.736C169.675 14.688 169.946 15.92 169.946 17.432V26H166.446V17.88C166.446 16.5547 166.129 15.5653 165.494 14.912C164.878 14.2587 164.01 13.932 162.89 13.932C162.069 13.932 161.341 14.1 160.706 14.436C160.071 14.772 159.577 15.276 159.222 15.948C158.886 16.6013 158.718 17.432 158.718 18.44V26H155.218V11.048H158.55V15.08L157.962 13.848C158.485 12.896 159.241 12.168 160.23 11.664C161.238 11.1413 162.395 10.88 163.702 10.88Z" fill="white"/>
<path d="M199 26C197.343 26 196 27.3431 196 29C196 30.6569 197.343 32 199 32V26ZM148.621 142.621C149.793 141.45 149.793 139.55 148.621 138.379L129.529 119.287C128.358 118.115 126.458 118.115 125.287 119.287C124.115 120.458 124.115 122.358 125.287 123.529L142.257 140.5L125.287 157.471C124.115 158.642 124.115 160.542 125.287 161.713C126.458 162.885 128.358 162.885 129.529 161.713L148.621 142.621ZM199 32H783V26H199V32ZM792 41V71.5H798V41H792ZM15.5 143.5H146.5V137.5H15.5V143.5ZM783 80.5H15.5V86.5H783V80.5ZM0.5 95.5V128.5H6.5V95.5H0.5ZM15.5 80.5C7.21574 80.5 0.5 87.2157 0.5 95.5H6.5C6.5 90.5294 10.5294 86.5 15.5 86.5V80.5ZM15.5 137.5C10.5294 137.5 6.5 133.471 6.5 128.5H0.5C0.5 136.784 7.21573 143.5 15.5 143.5V137.5ZM783 32C787.971 32 792 36.0294 792 41H798C798 32.7157 791.284 26 783 26V32ZM792 71.5C792 76.4706 787.971 80.5 783 80.5V86.5C791.284 86.5 798 79.7843 798 71.5H792Z" fill="white"/>
</svg>
