<svg width="278" height="285" viewBox="0 0 278 285" fill="none" xmlns="http://www.w3.org/2000/svg">
<path d="M139.124 0L158.732 56.2164L200.789 14.0747L194.064 73.2315L250.241 53.5111L218.515 103.892L277.685 110.498L227.241 142.124L277.685 173.75L218.515 180.357L250.241 230.737L194.064 211.017L200.789 270.173L158.732 228.032L139.124 284.248L119.516 228.032L77.4587 270.173L84.184 211.017L28.007 230.737L59.7334 180.357L0.563339 173.75L51.0071 142.124L0.563339 110.498L59.7334 103.892L28.007 53.5111L84.184 73.2315L77.4587 14.0747L119.516 56.2164L139.124 0Z" fill="#EE3449"/>
</svg>
