<svg width="504" height="339" viewBox="0 0 504 339" fill="none" xmlns="http://www.w3.org/2000/svg">
<rect x="16.4893" y="1.6355" width="471.656" height="294.138" rx="26.5" fill="#B9FF5E" stroke="#E9E3EE" stroke-width="3"/>
<g filter="url(#filter0_d_1939_148)">
<path fill-rule="evenodd" clip-rule="evenodd" d="M177.507 250.985C181.579 255.739 181.03 262.898 176.282 266.975L101.009 331.616C98.4591 333.806 95.2165 334.662 92.1299 334.249C88.7804 337.206 84.3804 339 79.5614 339L19.0002 339C8.50679 339 0.000210482 330.493 0.000210607 320L0.000196633 212.128C0.000196634 212.082 0.000349222 212.037 0.000669657 211.992L0.000655357 131.517C0.000655432 125.262 5.0712 120.191 11.326 120.191C17.5808 120.191 22.6514 125.262 22.6514 131.517L22.6514 193.128L79.5614 193.128C81.7193 193.128 83.7932 193.487 85.7263 194.15C85.8986 193.982 86.0772 193.818 86.2623 193.66L161.535 129.019C166.284 124.941 173.434 125.489 177.507 130.242C181.579 134.995 181.03 142.154 176.282 146.232L101.009 210.873C100.247 211.527 99.424 212.062 98.5614 212.48L98.5614 224.164L161.535 170.085C166.284 166.007 173.434 166.554 177.507 171.308C181.579 176.061 181.03 183.22 176.282 187.298L101.009 251.939C100.247 252.593 99.424 253.128 98.5614 253.546L98.5614 262.777L161.535 208.698C166.284 204.621 173.434 205.168 177.507 209.921C181.579 214.675 181.03 221.834 176.282 225.911L101.009 290.552C100.247 291.206 99.424 291.741 98.5614 292.159L98.5614 303.841L161.535 249.762C166.284 245.685 173.434 246.232 177.507 250.985Z" fill="#1F1D20"/>
</g>
<g filter="url(#filter1_d_1939_148)">
<path fill-rule="evenodd" clip-rule="evenodd" d="M326.493 250.985C322.421 255.739 322.97 262.898 327.718 266.975L402.991 331.616C405.541 333.806 408.783 334.662 411.87 334.249C415.22 337.206 419.62 339 424.439 339L485 339C495.493 339 504 330.493 504 320L504 212.128C504 212.082 504 212.037 503.999 211.992L503.999 131.517C503.999 125.262 498.929 120.191 492.674 120.191C486.419 120.191 481.349 125.262 481.349 131.517L481.349 193.128L424.439 193.128C422.281 193.128 420.207 193.487 418.274 194.15C418.101 193.982 417.923 193.818 417.738 193.66L342.465 129.019C337.716 124.941 330.566 125.489 326.493 130.242C322.421 134.995 322.97 142.154 327.718 146.232L402.991 210.873C403.753 211.527 404.576 212.062 405.439 212.48L405.439 224.164L342.465 170.085C337.716 166.007 330.566 166.554 326.493 171.308C322.421 176.061 322.97 183.22 327.718 187.298L402.991 251.939C403.753 252.593 404.576 253.128 405.439 253.546L405.439 262.777L342.465 208.698C337.716 204.621 330.566 205.168 326.493 209.921C322.421 214.675 322.97 221.834 327.718 225.911L402.991 290.552C403.753 291.206 404.576 291.741 405.439 292.159L405.439 303.841L342.465 249.762C337.716 245.685 330.566 246.232 326.493 250.985Z" fill="#1F1D20"/>
</g>
<path d="M163.018 92.0675C161.066 92.0675 159.546 91.5555 158.458 90.5315C157.37 89.4755 156.826 88.0355 156.826 86.2115V59.9075C156.826 59.2995 156.986 58.8355 157.306 58.5155C157.626 58.1635 158.058 57.9875 158.602 57.9875C159.178 57.9875 159.626 58.1635 159.946 58.5155C160.266 58.8355 160.426 59.2995 160.426 59.9075V86.3075C160.426 87.1395 160.65 87.8115 161.098 88.3235C161.578 88.8355 162.202 89.0915 162.97 89.0915H178.954C180.202 89.0915 180.826 89.5875 180.826 90.5795C180.826 91.0595 180.666 91.4275 180.346 91.6835C180.026 91.9395 179.562 92.0675 178.954 92.0675H163.018ZM187.303 92.5475C186.759 92.5475 186.327 92.3875 186.007 92.0675C185.687 91.7155 185.527 91.2355 185.527 90.6275V71.8595C185.527 67.5075 186.743 64.1155 189.175 61.6835C191.639 59.2195 195.047 57.9875 199.399 57.9875C203.719 57.9875 207.111 59.2195 209.575 61.6835C212.039 64.1475 213.271 67.5395 213.271 71.8595V90.6275C213.271 91.2355 213.111 91.7155 212.791 92.0675C212.471 92.3875 212.023 92.5475 211.447 92.5475C210.903 92.5475 210.455 92.3875 210.103 92.0675C209.783 91.7155 209.623 91.2355 209.623 90.6275V79.8275H189.127V90.6275C189.127 91.2355 188.967 91.7155 188.647 92.0675C188.327 92.3875 187.879 92.5475 187.303 92.5475ZM209.623 76.8515V71.7155C209.623 68.2915 208.743 65.6675 206.983 63.8435C205.223 61.9875 202.695 61.0595 199.399 61.0595C196.071 61.0595 193.527 61.9715 191.767 63.7955C190.007 65.6195 189.127 68.2595 189.127 71.7155V76.8515H209.623ZM225.825 92.0675C223.873 92.0675 222.353 91.5555 221.265 90.5315C220.177 89.4755 219.633 88.0355 219.633 86.2115V64.2275C219.633 62.4355 220.161 61.0275 221.217 60.0035C222.305 58.9795 223.809 58.4675 225.729 58.4675H237.105C240.337 58.4675 242.849 59.2675 244.641 60.8675C246.433 62.4675 247.329 64.7235 247.329 67.6355C247.329 69.2995 246.897 70.7555 246.033 72.0035C245.169 73.2195 243.985 74.1475 242.481 74.7875V74.8835C244.177 75.4915 245.505 76.4515 246.465 77.7635C247.425 79.0435 247.905 80.5635 247.905 82.3235C247.905 85.3315 246.993 87.7155 245.169 89.4755C243.345 91.2035 240.849 92.0675 237.681 92.0675H225.825ZM237.489 73.4435C239.377 73.4435 240.881 72.9155 242.001 71.8595C243.121 70.8035 243.681 69.3955 243.681 67.6355C243.681 65.6195 243.121 64.0835 242.001 63.0275C240.881 61.9715 239.249 61.4435 237.105 61.4435H225.777C225.041 61.4435 224.433 61.7155 223.953 62.2595C223.473 62.7715 223.233 63.4275 223.233 64.2275V73.4435H237.489ZM237.489 89.0435C239.697 89.0435 241.377 88.4835 242.529 87.3635C243.681 86.2115 244.257 84.5475 244.257 82.3715C244.257 80.4835 243.649 79.0115 242.433 77.9555C241.217 76.8995 239.553 76.3715 237.441 76.3715H223.233V86.3075C223.233 87.1075 223.473 87.7635 223.953 88.2755C224.433 88.7875 225.041 89.0435 225.777 89.0435H237.489ZM267.933 92.5475C264.701 92.5475 261.789 91.8435 259.197 90.4355C256.605 88.9955 254.557 86.9635 253.053 84.3395C251.581 81.7155 250.845 78.6915 250.845 75.2675C250.845 71.8115 251.581 68.7875 253.053 66.1955C254.557 63.5715 256.605 61.5555 259.197 60.1475C261.789 58.7075 264.701 57.9875 267.933 57.9875C271.165 57.9875 274.077 58.7075 276.669 60.1475C279.261 61.5555 281.293 63.5715 282.765 66.1955C284.269 68.7875 285.021 71.8115 285.021 75.2675C285.021 78.6915 284.269 81.7155 282.765 84.3395C281.293 86.9635 279.261 88.9955 276.669 90.4355C274.077 91.8435 271.165 92.5475 267.933 92.5475ZM267.933 89.4755C270.525 89.4755 272.829 88.9155 274.845 87.7955C276.893 86.6755 278.493 85.0595 279.645 82.9475C280.829 80.8035 281.421 78.2435 281.421 75.2675C281.421 72.2595 280.813 69.6835 279.597 67.5395C278.413 65.3955 276.781 63.7795 274.701 62.6915C272.653 61.6035 270.365 61.0595 267.837 61.0595C265.277 61.0595 262.973 61.6195 260.925 62.7395C258.909 63.8595 257.325 65.4915 256.173 67.6355C255.021 69.7795 254.445 72.3235 254.445 75.2675C254.445 78.2435 255.021 80.8035 256.173 82.9475C257.357 85.0595 258.957 86.6755 260.973 87.7955C263.021 88.9155 265.341 89.4755 267.933 89.4755ZM290.22 64.4675C290.22 62.6435 290.748 61.1875 291.804 60.0995C292.892 59.0115 294.46 58.4675 296.508 58.4675H305.484C314.188 58.4675 318.54 62.0835 318.54 69.3155C318.54 72.8035 317.484 75.4435 315.372 77.2355C313.26 79.0275 310.076 79.9235 305.82 79.9235L315.132 89.5715C315.42 89.8595 315.564 90.2275 315.564 90.6755C315.564 91.2515 315.324 91.7155 314.844 92.0675C314.46 92.3555 314.06 92.4995 313.644 92.4995C313.004 92.4995 312.396 92.1795 311.82 91.5395L300.78 79.9235H294.3V90.4835C294.3 91.1235 294.108 91.6355 293.724 92.0195C293.372 92.3715 292.876 92.5475 292.236 92.5475C291.596 92.5475 291.1 92.3715 290.748 92.0195C290.396 91.6355 290.22 91.1235 290.22 90.4835V64.4675ZM305.724 76.6115C308.668 76.6115 310.844 76.0675 312.252 74.9795C313.692 73.8595 314.412 71.9715 314.412 69.3155C314.412 66.6275 313.692 64.7075 312.252 63.5555C310.812 62.3715 308.636 61.7795 305.724 61.7795H296.748C296.012 61.7795 295.42 62.0195 294.972 62.4995C294.524 62.9795 294.3 63.6355 294.3 64.4675V76.6115H305.724ZM338.383 92.5475C335.151 92.5475 332.239 91.8435 329.647 90.4355C327.055 88.9955 325.007 86.9635 323.503 84.3395C322.031 81.7155 321.295 78.6915 321.295 75.2675C321.295 71.8115 322.031 68.7875 323.503 66.1955C325.007 63.5715 327.055 61.5555 329.647 60.1475C332.239 58.7075 335.151 57.9875 338.383 57.9875C341.615 57.9875 344.527 58.7075 347.119 60.1475C349.711 61.5555 351.743 63.5715 353.215 66.1955C354.719 68.7875 355.471 71.8115 355.471 75.2675C355.471 78.6915 354.719 81.7155 353.215 84.3395C351.743 86.9635 349.711 88.9955 347.119 90.4355C344.527 91.8435 341.615 92.5475 338.383 92.5475ZM338.383 89.4755C340.975 89.4755 343.279 88.9155 345.295 87.7955C347.343 86.6755 348.943 85.0595 350.095 82.9475C351.279 80.8035 351.871 78.2435 351.871 75.2675C351.871 72.2595 351.263 69.6835 350.047 67.5395C348.863 65.3955 347.231 63.7795 345.151 62.6915C343.103 61.6035 340.815 61.0595 338.287 61.0595C335.727 61.0595 333.423 61.6195 331.375 62.7395C329.359 63.8595 327.775 65.4915 326.623 67.6355C325.471 69.7795 324.895 72.3235 324.895 75.2675C324.895 78.2435 325.471 80.8035 326.623 82.9475C327.807 85.0595 329.407 86.6755 331.423 87.7955C333.471 88.9155 335.791 89.4755 338.383 89.4755Z" fill="#8783D1"/>
<path d="M276.8 81.082C276.8 81.082 274.022 85.5841 267.674 85.5841C261.326 85.5841 258.813 81.082 258.813 81.082" stroke="#1F1D20" stroke-width="3" stroke-linecap="round"/>
<defs>
<filter id="filter0_d_1939_148" x="0" y="112.191" width="188.235" height="226.809" filterUnits="userSpaceOnUse" color-interpolation-filters="sRGB">
<feFlood flood-opacity="0" result="BackgroundImageFix"/>
<feColorMatrix in="SourceAlpha" type="matrix" values="0 0 0 0 0 0 0 0 0 0 0 0 0 0 0 0 0 0 127 0" result="hardAlpha"/>
<feOffset dx="4" dy="-4"/>
<feGaussianBlur stdDeviation="2"/>
<feComposite in2="hardAlpha" operator="out"/>
<feColorMatrix type="matrix" values="0 0 0 0 0 0 0 0 0 0 0 0 0 0 0 0 0 0 0.25 0"/>
<feBlend mode="normal" in2="BackgroundImageFix" result="effect1_dropShadow_1939_148"/>
<feBlend mode="normal" in="SourceGraphic" in2="effect1_dropShadow_1939_148" result="shape"/>
</filter>
<filter id="filter1_d_1939_148" x="315.765" y="112.191" width="188.235" height="226.809" filterUnits="userSpaceOnUse" color-interpolation-filters="sRGB">
<feFlood flood-opacity="0" result="BackgroundImageFix"/>
<feColorMatrix in="SourceAlpha" type="matrix" values="0 0 0 0 0 0 0 0 0 0 0 0 0 0 0 0 0 0 127 0" result="hardAlpha"/>
<feOffset dx="-4" dy="-4"/>
<feGaussianBlur stdDeviation="2"/>
<feComposite in2="hardAlpha" operator="out"/>
<feColorMatrix type="matrix" values="0 0 0 0 0 0 0 0 0 0 0 0 0 0 0 0 0 0 0.25 0"/>
<feBlend mode="normal" in2="BackgroundImageFix" result="effect1_dropShadow_1939_148"/>
<feBlend mode="normal" in="SourceGraphic" in2="effect1_dropShadow_1939_148" result="shape"/>
</filter>
</defs>
</svg>
